<?xml version="1.0" encoding="UTF-8" standalone="no"?>
<!DOCTYPE svg PUBLIC "-//W3C//DTD SVG 1.1//EN"
 "http://www.w3.org/Graphics/SVG/1.1/DTD/svg11.dtd">
<!-- Generated by graphviz version 9.0.0 (0)
 -->
<!-- Title: Entity Relationship Diagram Pages: 1 -->
<svg width="778pt" height="379pt"
 viewBox="0.00 0.00 778.00 378.50" xmlns="http://www.w3.org/2000/svg" xmlns:xlink="http://www.w3.org/1999/xlink">
<g id="graph0" class="graph" transform="scale(1 1) rotate(0) translate(4 374.5)">
<title>Entity Relationship Diagram</title>
<polygon fill="white" stroke="none" points="-4,4 -4,-374.5 774,-374.5 774,4 -4,4"/>
<text text-anchor="middle" x="385" y="-5.95" font-family="Times New Roman,serif" font-size="9.00" fill="#a8a8a8">Created by erdantic v0.6.0 &lt;https://github.com/drivendataorg/erdantic&gt;</text>
<!-- pypsse.models.ApiPssePutRequest -->
<g id="node1" class="node">
<title>pypsse.models.ApiPssePutRequest</title>
<g id="a_node1"><a xlink:title="pypsse.models.ApiPssePutRequest&#10;&#10;Usage docs: https://docs.pydantic.dev/2.5/concepts/models/&#10;&#10;A base class for creating Pydantic models.&#10;&#10;Attributes:&#10; &#160;&#160;&#160;__class_vars__: The names of classvars defined on the model.&#10; &#160;&#160;&#160;__private_attributes__: Metadata about the private attributes of the model.&#10; &#160;&#160;&#160;__signature__: The signature for instantiating the model.&#10;&#10; &#160;&#160;&#160;__pydantic_complete__: Whether model building is completed, or if there are still undefined fields.&#10; &#160;&#160;&#160;__pydantic_core_schema__: The pydantic&#45;core schema used to build the SchemaValidator and SchemaSerializer.&#10; &#160;&#160;&#160;__pydantic_custom_init__: Whether the model has a custom `__init__` function.&#10; &#160;&#160;&#160;__pydantic_decorators__: Metadata containing the decorators defined on the model.&#10; &#160;&#160;&#160;&#160;&#160;&#160;&#160;This replaces `Model.__validators__` and `Model.__root_validators__` from Pydantic V1.&#10; &#160;&#160;&#160;__pydantic_generic_metadata__: Metadata for generic models; contains data used for a similar purpose to&#10; &#160;&#160;&#160;&#160;&#160;&#160;&#160;__args__, __origin__, __parameters__ in typing&#45;module generics. May eventually be replaced by these.&#10; &#160;&#160;&#160;__pydantic_parent_namespace__: Parent namespace of the model, used for automatic rebuilding of models.&#10; &#160;&#160;&#160;__pydantic_post_init__: The name of the post&#45;init method for the model, if defined.&#10; &#160;&#160;&#160;__pydantic_root_model__: Whether the model is a `RootModel`.&#10; &#160;&#160;&#160;__pydantic_serializer__: The pydantic&#45;core SchemaSerializer used to dump instances of the model.&#10; &#160;&#160;&#160;__pydantic_validator__: The pydantic&#45;core SchemaValidator used to validate instances of the model.&#10;&#10; &#160;&#160;&#160;__pydantic_extra__: An instance attribute with the values of extra fields from validation when&#10; &#160;&#160;&#160;&#160;&#160;&#160;&#160;`model_config[&#39;extra&#39;] == &#39;allow&#39;`.&#10; &#160;&#160;&#160;__pydantic_fields_set__: An instance attribute with the names of fields explicitly set.&#10; &#160;&#160;&#160;__pydantic_private__: Instance attribute with the values of private attributes set on the model instance.&#10;">
<polygon fill="none" stroke="black" points="0,-348.5 0,-370.5 227,-370.5 227,-348.5 0,-348.5"/>
<text text-anchor="start" x="57.25" y="-355.2" font-family="Times New Roman,serif" font-weight="bold" font-size="14.00">ApiPssePutRequest</text>
<polygon fill="none" stroke="black" points="0,-326.5 0,-348.5 66,-348.5 66,-326.5 0,-326.5"/>
<text text-anchor="start" x="21" y="-332.2" font-family="Times New Roman,serif" font-size="14.00">uuid</text>
<polygon fill="none" stroke="black" points="66,-326.5 66,-348.5 227,-348.5 227,-326.5 66,-326.5"/>
<text text-anchor="start" x="129.62" y="-332.2" font-family="Times New Roman,serif" font-size="14.00">UUID</text>
<polygon fill="none" stroke="black" points="0,-304.5 0,-326.5 66,-326.5 66,-304.5 0,-304.5"/>
<text text-anchor="start" x="5.62" y="-310.2" font-family="Times New Roman,serif" font-size="14.00">command</text>
<polygon fill="none" stroke="black" points="66,-304.5 66,-326.5 227,-326.5 227,-304.5 66,-304.5"/>
<text text-anchor="start" x="73.75" y="-310.2" font-family="Times New Roman,serif" font-size="14.00">ApiCommands(str, Enum)</text>
<polygon fill="none" stroke="black" points="0,-282.5 0,-304.5 66,-304.5 66,-282.5 0,-282.5"/>
<text text-anchor="start" x="3" y="-288.2" font-family="Times New Roman,serif" font-size="14.00">parameters</text>
<polygon fill="none" stroke="black" points="66,-282.5 66,-304.5 227,-304.5 227,-282.5 66,-282.5"/>
<text text-anchor="start" x="68.88" y="-288.2" font-family="Times New Roman,serif" font-size="14.00">Optional[ExportAssetTypes]</text>
</a>
</g>
</g>
<!-- pypsse.models.ExportAssetTypes -->
<g id="node2" class="node">
<title>pypsse.models.ExportAssetTypes</title>
<g id="a_node2"><a xlink:title="pypsse.models.ExportAssetTypes&#10;&#10;Valid export models and associated options&#10;">
<polygon fill="none" stroke="black" points="335,-282.5 335,-304.5 770,-304.5 770,-282.5 335,-282.5"/>
<text text-anchor="start" x="500" y="-289.2" font-family="Times New Roman,serif" font-weight="bold" font-size="14.00">ExportAssetTypes</text>
<polygon fill="none" stroke="black" points="335,-260.5 335,-282.5 455,-282.5 455,-260.5 335,-260.5"/>
<text text-anchor="start" x="380" y="-266.2" font-family="Times New Roman,serif" font-size="14.00">buses</text>
<polygon fill="none" stroke="black" points="455,-260.5 455,-282.5 770,-282.5 770,-260.5 455,-260.5"/>
<text text-anchor="start" x="500.38" y="-266.2" font-family="Times New Roman,serif" font-size="14.00">Optional[List[BusProperties(str, Enum)]]</text>
<polygon fill="none" stroke="black" points="335,-238.5 335,-260.5 455,-260.5 455,-238.5 335,-238.5"/>
<text text-anchor="start" x="381.12" y="-244.2" font-family="Times New Roman,serif" font-size="14.00">areas</text>
<polygon fill="none" stroke="black" points="455,-238.5 455,-260.5 770,-260.5 770,-238.5 455,-238.5"/>
<text text-anchor="start" x="497.75" y="-244.2" font-family="Times New Roman,serif" font-size="14.00">Optional[List[AreaProperties(str, Enum)]]</text>
<polygon fill="none" stroke="black" points="335,-216.5 335,-238.5 455,-238.5 455,-216.5 335,-216.5"/>
<text text-anchor="start" x="379.62" y="-222.2" font-family="Times New Roman,serif" font-size="14.00">zones</text>
<polygon fill="none" stroke="black" points="455,-216.5 455,-238.5 770,-238.5 770,-216.5 455,-216.5"/>
<text text-anchor="start" x="497" y="-222.2" font-family="Times New Roman,serif" font-size="14.00">Optional[List[ZoneProperties(str, Enum)]]</text>
<polygon fill="none" stroke="black" points="335,-194.5 335,-216.5 455,-216.5 455,-194.5 335,-194.5"/>
<text text-anchor="start" x="374.38" y="-200.2" font-family="Times New Roman,serif" font-size="14.00">stations</text>
<polygon fill="none" stroke="black" points="455,-194.5 455,-216.5 770,-216.5 770,-194.5 455,-194.5"/>
<text text-anchor="start" x="491.75" y="-200.2" font-family="Times New Roman,serif" font-size="14.00">Optional[List[StationProperties(str, Enum)]]</text>
<polygon fill="none" stroke="black" points="335,-172.5 335,-194.5 455,-194.5 455,-172.5 335,-172.5"/>
<text text-anchor="start" x="341.38" y="-178.2" font-family="Times New Roman,serif" font-size="14.00">dctransmissionlines</text>
<polygon fill="none" stroke="black" points="455,-172.5 455,-194.5 770,-194.5 770,-172.5 455,-172.5"/>
<text text-anchor="start" x="489.12" y="-178.2" font-family="Times New Roman,serif" font-size="14.00">Optional[List[DCLineProperties(str, Enum)]]</text>
<polygon fill="none" stroke="black" points="335,-150.5 335,-172.5 455,-172.5 455,-150.5 335,-150.5"/>
<text text-anchor="start" x="380.75" y="-156.2" font-family="Times New Roman,serif" font-size="14.00">loads</text>
<polygon fill="none" stroke="black" points="455,-150.5 455,-172.5 770,-172.5 770,-150.5 455,-150.5"/>
<text text-anchor="start" x="497" y="-156.2" font-family="Times New Roman,serif" font-size="14.00">Optional[List[LoadProperties(str, Enum)]]</text>
<polygon fill="none" stroke="black" points="335,-128.5 335,-150.5 455,-150.5 455,-128.5 335,-128.5"/>
<text text-anchor="start" x="360.5" y="-134.2" font-family="Times New Roman,serif" font-size="14.00">fixed_shunts</text>
<polygon fill="none" stroke="black" points="455,-128.5 455,-150.5 770,-150.5 770,-128.5 455,-128.5"/>
<text text-anchor="start" x="479.75" y="-134.2" font-family="Times New Roman,serif" font-size="14.00">Optional[List[FixedShuntProperties(str, Enum)]]</text>
<polygon fill="none" stroke="black" points="335,-106.5 335,-128.5 455,-128.5 455,-106.5 335,-106.5"/>
<text text-anchor="start" x="350.38" y="-112.2" font-family="Times New Roman,serif" font-size="14.00">switched_shunts</text>
<polygon fill="none" stroke="black" points="455,-106.5 455,-128.5 770,-128.5 770,-106.5 455,-106.5"/>
<text text-anchor="start" x="470" y="-112.2" font-family="Times New Roman,serif" font-size="14.00">Optional[List[SwitchedShuntProperties(str, Enum)]]</text>
<polygon fill="none" stroke="black" points="335,-84.5 335,-106.5 455,-106.5 455,-84.5 335,-84.5"/>
<text text-anchor="start" x="360.5" y="-90.2" font-family="Times New Roman,serif" font-size="14.00">transformers</text>
<polygon fill="none" stroke="black" points="455,-84.5 455,-106.5 770,-106.5 770,-84.5 455,-84.5"/>
<text text-anchor="start" x="476.75" y="-90.2" font-family="Times New Roman,serif" font-size="14.00">Optional[List[TransformerProperties(str, Enum)]]</text>
<polygon fill="none" stroke="black" points="335,-62.5 335,-84.5 455,-84.5 455,-62.5 335,-62.5"/>
<text text-anchor="start" x="371" y="-68.2" font-family="Times New Roman,serif" font-size="14.00">branches</text>
<polygon fill="none" stroke="black" points="455,-62.5 455,-84.5 770,-84.5 770,-62.5 455,-62.5"/>
<text text-anchor="start" x="491.38" y="-68.2" font-family="Times New Roman,serif" font-size="14.00">Optional[List[BranchProperties(str, Enum)]]</text>
<polygon fill="none" stroke="black" points="335,-40.5 335,-62.5 455,-62.5 455,-40.5 335,-40.5"/>
<text text-anchor="start" x="338" y="-46.2" font-family="Times New Roman,serif" font-size="14.00">induction_generators</text>
<polygon fill="none" stroke="black" points="455,-40.5 455,-62.5 770,-62.5 770,-40.5 455,-40.5"/>
<text text-anchor="start" x="458" y="-46.2" font-family="Times New Roman,serif" font-size="14.00">Optional[List[InductionGeneratorProperties(str, Enum)]]</text>
<polygon fill="none" stroke="black" points="335,-18.5 335,-40.5 455,-40.5 455,-18.5 335,-18.5"/>
<text text-anchor="start" x="369.12" y="-24.2" font-family="Times New Roman,serif" font-size="14.00">machines</text>
<polygon fill="none" stroke="black" points="455,-18.5 455,-40.5 770,-40.5 770,-18.5 455,-18.5"/>
<text text-anchor="start" x="484.25" y="-24.2" font-family="Times New Roman,serif" font-size="14.00">Optional[List[MachinesProperties(str, Enum)]]</text>
</a>
</g>
</g>
<!-- pypsse.models.ApiPssePutRequest&#45;&gt;pypsse.models.ExportAssetTypes -->
<g id="edge1" class="edge">
<title>pypsse.models.ApiPssePutRequest:e&#45;&gt;pypsse.models.ExportAssetTypes:w</title>
<path fill="none" stroke="black" d="M227,-293.5C268.06,-293.5 282.78,-293.5 316.23,-293.5"/>
<polyline fill="none" stroke="black" points="335,-293.5 330,-293.5"/>
<polygon fill="black" stroke="black" points="329,-288.5 329,-298.5 327,-298.5 327,-288.5 329,-288.5"/>
<polyline fill="none" stroke="black" points="330,-293.5 325,-293.5"/>
<ellipse fill="none" stroke="black" cx="320.5" cy="-293.5" rx="4" ry="4"/>
</g>
</g>
</svg>
