<?xml version="1.0" encoding="UTF-8" standalone="no"?>
<!DOCTYPE svg PUBLIC "-//W3C//DTD SVG 1.1//EN"
 "http://www.w3.org/Graphics/SVG/1.1/DTD/svg11.dtd">
<!-- Generated by graphviz version 9.0.0 (0)
 -->
<!-- Title: Entity Relationship Diagram Pages: 1 -->
<svg width="275pt" height="159pt"
 viewBox="0.00 0.00 274.50 158.50" xmlns="http://www.w3.org/2000/svg" xmlns:xlink="http://www.w3.org/1999/xlink">
<g id="graph0" class="graph" transform="scale(1 1) rotate(0) translate(4 154.5)">
<title>Entity Relationship Diagram</title>
<polygon fill="white" stroke="none" points="-4,4 -4,-154.5 270.5,-154.5 270.5,4 -4,4"/>
<text text-anchor="middle" x="133.25" y="-5.95" font-family="Times New Roman,serif" font-size="9.00" fill="#a8a8a8">Created by erdantic v0.6.0 &lt;https://github.com/drivendataorg/erdantic&gt;</text>
<!-- pypsse.models.BusChannel -->
<g id="node1" class="node">
<title>pypsse.models.BusChannel</title>
<g id="a_node1"><a xlink:title="pypsse.models.BusChannel&#10;&#10;Bus channel model defination&#10;">
<polygon fill="none" stroke="black" points="24.25,-128.5 24.25,-150.5 242.25,-150.5 242.25,-128.5 24.25,-128.5"/>
<text text-anchor="start" x="98" y="-135.2" font-family="Times New Roman,serif" font-weight="bold" font-size="14.00">BusChannel</text>
<polygon fill="none" stroke="black" points="24.25,-106.5 24.25,-128.5 117.25,-128.5 117.25,-106.5 24.25,-106.5"/>
<text text-anchor="start" x="42.62" y="-112.2" font-family="Times New Roman,serif" font-size="14.00">asset_type</text>
<polygon fill="none" stroke="black" points="117.25,-106.5 117.25,-128.5 242.25,-128.5 242.25,-106.5 117.25,-106.5"/>
<text text-anchor="start" x="120.12" y="-112.2" font-family="Times New Roman,serif" font-size="14.00">ChannelTypes(Enum)</text>
<polygon fill="none" stroke="black" points="24.25,-84.5 24.25,-106.5 117.25,-106.5 117.25,-84.5 24.25,-84.5"/>
<text text-anchor="start" x="61.75" y="-90.2" font-family="Times New Roman,serif" font-size="14.00">use</text>
<polygon fill="none" stroke="black" points="117.25,-84.5 117.25,-106.5 242.25,-106.5 242.25,-84.5 117.25,-84.5"/>
<text text-anchor="start" x="129.5" y="-90.2" font-family="Times New Roman,serif" font-size="14.00">UseModes(Enum)</text>
<polygon fill="none" stroke="black" points="24.25,-62.5 24.25,-84.5 117.25,-84.5 117.25,-62.5 24.25,-62.5"/>
<text text-anchor="start" x="55.75" y="-68.2" font-family="Times New Roman,serif" font-size="14.00">regex</text>
<polygon fill="none" stroke="black" points="117.25,-62.5 117.25,-84.5 242.25,-84.5 242.25,-62.5 117.25,-62.5"/>
<text text-anchor="start" x="173" y="-68.2" font-family="Times New Roman,serif" font-size="14.00">str</text>
<polygon fill="none" stroke="black" points="24.25,-40.5 24.25,-62.5 117.25,-62.5 117.25,-40.5 24.25,-40.5"/>
<text text-anchor="start" x="46" y="-46.2" font-family="Times New Roman,serif" font-size="14.00">asset_list</text>
<polygon fill="none" stroke="black" points="117.25,-40.5 117.25,-62.5 242.25,-62.5 242.25,-40.5 117.25,-40.5"/>
<text text-anchor="start" x="157.62" y="-46.2" font-family="Times New Roman,serif" font-size="14.00">List[int]</text>
<polygon fill="none" stroke="black" points="24.25,-18.5 24.25,-40.5 117.25,-40.5 117.25,-18.5 24.25,-18.5"/>
<text text-anchor="start" x="27.25" y="-24.2" font-family="Times New Roman,serif" font-size="14.00">asset_properties</text>
<polygon fill="none" stroke="black" points="117.25,-18.5 117.25,-40.5 242.25,-40.5 242.25,-18.5 117.25,-18.5"/>
<text text-anchor="start" x="158" y="-24.2" font-family="Times New Roman,serif" font-size="14.00">List[str]</text>
</a>
</g>
</g>
</g>
</svg>
