<?xml version="1.0" encoding="UTF-8" standalone="no"?>
<!DOCTYPE svg PUBLIC "-//W3C//DTD SVG 1.1//EN"
 "http://www.w3.org/Graphics/SVG/1.1/DTD/svg11.dtd">
<!-- Generated by graphviz version 9.0.0 (0)
 -->
<!-- Title: Entity Relationship Diagram Pages: 1 -->
<svg width="275pt" height="137pt"
 viewBox="0.00 0.00 274.50 136.50" xmlns="http://www.w3.org/2000/svg" xmlns:xlink="http://www.w3.org/1999/xlink">
<g id="graph0" class="graph" transform="scale(1 1) rotate(0) translate(4 132.5)">
<title>Entity Relationship Diagram</title>
<polygon fill="white" stroke="none" points="-4,4 -4,-132.5 270.5,-132.5 270.5,4 -4,4"/>
<text text-anchor="middle" x="133.25" y="-5.95" font-family="Times New Roman,serif" font-size="9.00" fill="#a8a8a8">Created by erdantic v0.6.0 &lt;https://github.com/drivendataorg/erdantic&gt;</text>
<!-- pypsse.models.BusSubsystems -->
<g id="node1" class="node">
<title>pypsse.models.BusSubsystems</title>
<g id="a_node1"><a xlink:title="pypsse.models.BusSubsystems&#10;&#10;Bus subsystem model defination&#10;">
<polygon fill="none" stroke="black" points="36.25,-106.5 36.25,-128.5 230.25,-128.5 230.25,-106.5 36.25,-106.5"/>
<text text-anchor="start" x="88.62" y="-113.2" font-family="Times New Roman,serif" font-weight="bold" font-size="14.00">BusSubsystems</text>
<polygon fill="none" stroke="black" points="36.25,-84.5 36.25,-106.5 150.25,-106.5 150.25,-84.5 36.25,-84.5"/>
<text text-anchor="start" x="67.38" y="-90.2" font-family="Times New Roman,serif" font-size="14.00">from_file</text>
<polygon fill="none" stroke="black" points="150.25,-84.5 150.25,-106.5 230.25,-106.5 230.25,-84.5 150.25,-84.5"/>
<text text-anchor="start" x="178.25" y="-90.2" font-family="Times New Roman,serif" font-size="14.00">bool</text>
<polygon fill="none" stroke="black" points="36.25,-62.5 36.25,-84.5 150.25,-84.5 150.25,-62.5 36.25,-62.5"/>
<text text-anchor="start" x="71.5" y="-68.2" font-family="Times New Roman,serif" font-size="14.00">bus_file</text>
<polygon fill="none" stroke="black" points="150.25,-62.5 150.25,-84.5 230.25,-84.5 230.25,-62.5 150.25,-62.5"/>
<text text-anchor="start" x="155.38" y="-68.2" font-family="Times New Roman,serif" font-size="14.00">Optional[str]</text>
<polygon fill="none" stroke="black" points="36.25,-40.5 36.25,-62.5 150.25,-62.5 150.25,-40.5 36.25,-40.5"/>
<text text-anchor="start" x="40.38" y="-46.2" font-family="Times New Roman,serif" font-size="14.00">bus_subsystem_list</text>
<polygon fill="none" stroke="black" points="150.25,-40.5 150.25,-62.5 230.25,-62.5 230.25,-40.5 150.25,-40.5"/>
<text text-anchor="start" x="153.12" y="-46.2" font-family="Times New Roman,serif" font-size="14.00">List[List[int]]</text>
<polygon fill="none" stroke="black" points="36.25,-18.5 36.25,-40.5 150.25,-40.5 150.25,-18.5 36.25,-18.5"/>
<text text-anchor="start" x="38.88" y="-24.2" font-family="Times New Roman,serif" font-size="14.00">publish_subsystems</text>
<polygon fill="none" stroke="black" points="150.25,-18.5 150.25,-40.5 230.25,-40.5 230.25,-18.5 150.25,-18.5"/>
<text text-anchor="start" x="168.12" y="-24.2" font-family="Times New Roman,serif" font-size="14.00">List[int]</text>
</a>
</g>
</g>
</g>
</svg>
