<?xml version="1.0" encoding="UTF-8" standalone="no"?>
<!DOCTYPE svg PUBLIC "-//W3C//DTD SVG 1.1//EN"
 "http://www.w3.org/Graphics/SVG/1.1/DTD/svg11.dtd">
<!-- Generated by graphviz version 9.0.0 (0)
 -->
<!-- Title: Entity Relationship Diagram Pages: 1 -->
<svg width="725pt" height="699pt"
 viewBox="0.00 0.00 725.00 698.50" xmlns="http://www.w3.org/2000/svg" xmlns:xlink="http://www.w3.org/1999/xlink">
<g id="graph0" class="graph" transform="scale(1 1) rotate(0) translate(4 694.5)">
<title>Entity Relationship Diagram</title>
<polygon fill="white" stroke="none" points="-4,4 -4,-694.5 721,-694.5 721,4 -4,4"/>
<text text-anchor="middle" x="358.5" y="-5.95" font-family="Times New Roman,serif" font-size="9.00" fill="#a8a8a8">Created by erdantic v0.6.0 &lt;https://github.com/drivendataorg/erdantic&gt;</text>
<!-- pypsse.models.BusFault -->
<g id="node1" class="node">
<title>pypsse.models.BusFault</title>
<g id="a_node1"><a xlink:title="pypsse.models.BusFault&#10;&#10;Bus fault model defination&#10;">
<polygon fill="none" stroke="black" points="561,-668.5 561,-690.5 717,-690.5 717,-668.5 561,-668.5"/>
<text text-anchor="start" x="612.75" y="-675.2" font-family="Times New Roman,serif" font-weight="bold" font-size="14.00">BusFault</text>
<polygon fill="none" stroke="black" points="561,-646.5 561,-668.5 657,-668.5 657,-646.5 561,-646.5"/>
<text text-anchor="start" x="596.62" y="-652.2" font-family="Times New Roman,serif" font-size="14.00">time</text>
<polygon fill="none" stroke="black" points="657,-646.5 657,-668.5 717,-668.5 717,-646.5 657,-646.5"/>
<text text-anchor="start" x="674.62" y="-652.2" font-family="Times New Roman,serif" font-size="14.00">float</text>
<polygon fill="none" stroke="black" points="561,-624.5 561,-646.5 657,-646.5 657,-624.5 561,-624.5"/>
<text text-anchor="start" x="591" y="-630.2" font-family="Times New Roman,serif" font-size="14.00">bus_id</text>
<polygon fill="none" stroke="black" points="657,-624.5 657,-646.5 717,-646.5 717,-624.5 657,-624.5"/>
<text text-anchor="start" x="679.88" y="-630.2" font-family="Times New Roman,serif" font-size="14.00">int</text>
<polygon fill="none" stroke="black" points="561,-602.5 561,-624.5 657,-624.5 657,-602.5 561,-602.5"/>
<text text-anchor="start" x="586.5" y="-608.2" font-family="Times New Roman,serif" font-size="14.00">duration</text>
<polygon fill="none" stroke="black" points="657,-602.5 657,-624.5 717,-624.5 717,-602.5 657,-602.5"/>
<text text-anchor="start" x="674.62" y="-608.2" font-family="Times New Roman,serif" font-size="14.00">float</text>
<polygon fill="none" stroke="black" points="561,-580.5 561,-602.5 657,-602.5 657,-580.5 561,-580.5"/>
<text text-anchor="start" x="586.88" y="-586.2" font-family="Times New Roman,serif" font-size="14.00">bus_trip</text>
<polygon fill="none" stroke="black" points="657,-580.5 657,-602.5 717,-602.5 717,-580.5 657,-580.5"/>
<text text-anchor="start" x="675" y="-586.2" font-family="Times New Roman,serif" font-size="14.00">bool</text>
<polygon fill="none" stroke="black" points="561,-558.5 561,-580.5 657,-580.5 657,-558.5 561,-558.5"/>
<text text-anchor="start" x="581.62" y="-564.2" font-family="Times New Roman,serif" font-size="14.00">trip_delay</text>
<polygon fill="none" stroke="black" points="657,-558.5 657,-580.5 717,-580.5 717,-558.5 657,-558.5"/>
<text text-anchor="start" x="674.62" y="-564.2" font-family="Times New Roman,serif" font-size="14.00">float</text>
<polygon fill="none" stroke="black" points="561,-536.5 561,-558.5 657,-558.5 657,-536.5 561,-536.5"/>
<text text-anchor="start" x="563.62" y="-542.2" font-family="Times New Roman,serif" font-size="14.00">fault_impedance</text>
<polygon fill="none" stroke="black" points="657,-536.5 657,-558.5 717,-558.5 717,-536.5 657,-536.5"/>
<text text-anchor="start" x="659.62" y="-542.2" font-family="Times New Roman,serif" font-size="14.00">List[float]</text>
</a>
</g>
</g>
<!-- pypsse.models.BusTrip -->
<g id="node2" class="node">
<title>pypsse.models.BusTrip</title>
<g id="a_node2"><a xlink:title="pypsse.models.BusTrip&#10;&#10;Bus trip model defination&#10;">
<polygon fill="none" stroke="black" points="603,-478.5 603,-500.5 675,-500.5 675,-478.5 603,-478.5"/>
<text text-anchor="start" x="615.38" y="-485.2" font-family="Times New Roman,serif" font-weight="bold" font-size="14.00">BusTrip</text>
<polygon fill="none" stroke="black" points="603,-456.5 603,-478.5 645,-478.5 645,-456.5 603,-456.5"/>
<text text-anchor="start" x="611.62" y="-462.2" font-family="Times New Roman,serif" font-size="14.00">time</text>
<polygon fill="none" stroke="black" points="645,-456.5 645,-478.5 675,-478.5 675,-456.5 645,-456.5"/>
<text text-anchor="start" x="647.62" y="-462.2" font-family="Times New Roman,serif" font-size="14.00">float</text>
<polygon fill="none" stroke="black" points="603,-434.5 603,-456.5 645,-456.5 645,-434.5 603,-434.5"/>
<text text-anchor="start" x="606" y="-440.2" font-family="Times New Roman,serif" font-size="14.00">bus_id</text>
<polygon fill="none" stroke="black" points="645,-434.5 645,-456.5 675,-456.5 675,-434.5 645,-434.5"/>
<text text-anchor="start" x="652.88" y="-440.2" font-family="Times New Roman,serif" font-size="14.00">int</text>
</a>
</g>
</g>
<!-- pypsse.models.Contingencies -->
<g id="node3" class="node">
<title>pypsse.models.Contingencies</title>
<g id="a_node3"><a xlink:title="pypsse.models.Contingencies&#10;&#10;Usage docs: https://docs.pydantic.dev/2.5/concepts/models/&#10;&#10;A base class for creating Pydantic models.&#10;&#10;Attributes:&#10; &#160;&#160;&#160;__class_vars__: The names of classvars defined on the model.&#10; &#160;&#160;&#160;__private_attributes__: Metadata about the private attributes of the model.&#10; &#160;&#160;&#160;__signature__: The signature for instantiating the model.&#10;&#10; &#160;&#160;&#160;__pydantic_complete__: Whether model building is completed, or if there are still undefined fields.&#10; &#160;&#160;&#160;__pydantic_core_schema__: The pydantic&#45;core schema used to build the SchemaValidator and SchemaSerializer.&#10; &#160;&#160;&#160;__pydantic_custom_init__: Whether the model has a custom `__init__` function.&#10; &#160;&#160;&#160;__pydantic_decorators__: Metadata containing the decorators defined on the model.&#10; &#160;&#160;&#160;&#160;&#160;&#160;&#160;This replaces `Model.__validators__` and `Model.__root_validators__` from Pydantic V1.&#10; &#160;&#160;&#160;__pydantic_generic_metadata__: Metadata for generic models; contains data used for a similar purpose to&#10; &#160;&#160;&#160;&#160;&#160;&#160;&#160;__args__, __origin__, __parameters__ in typing&#45;module generics. May eventually be replaced by these.&#10; &#160;&#160;&#160;__pydantic_parent_namespace__: Parent namespace of the model, used for automatic rebuilding of models.&#10; &#160;&#160;&#160;__pydantic_post_init__: The name of the post&#45;init method for the model, if defined.&#10; &#160;&#160;&#160;__pydantic_root_model__: Whether the model is a `RootModel`.&#10; &#160;&#160;&#160;__pydantic_serializer__: The pydantic&#45;core SchemaSerializer used to dump instances of the model.&#10; &#160;&#160;&#160;__pydantic_validator__: The pydantic&#45;core SchemaValidator used to validate instances of the model.&#10;&#10; &#160;&#160;&#160;__pydantic_extra__: An instance attribute with the values of extra fields from validation when&#10; &#160;&#160;&#160;&#160;&#160;&#160;&#160;`model_config[&#39;extra&#39;] == &#39;allow&#39;`.&#10; &#160;&#160;&#160;__pydantic_fields_set__: An instance attribute with the names of fields explicitly set.&#10; &#160;&#160;&#160;__pydantic_private__: Instance attribute with the values of private attributes set on the model instance.&#10;">
<polygon fill="none" stroke="black" points="0,-398.5 0,-420.5 453,-420.5 453,-398.5 0,-398.5"/>
<text text-anchor="start" x="186" y="-405.2" font-family="Times New Roman,serif" font-weight="bold" font-size="14.00">Contingencies</text>
<polygon fill="none" stroke="black" points="0,-376.5 0,-398.5 80,-398.5 80,-376.5 0,-376.5"/>
<text text-anchor="start" x="2.88" y="-382.2" font-family="Times New Roman,serif" font-size="14.00">contingencies</text>
<polygon fill="none" stroke="black" points="80,-376.5 80,-398.5 453,-398.5 453,-376.5 80,-376.5"/>
<text text-anchor="start" x="82.75" y="-382.2" font-family="Times New Roman,serif" font-size="14.00">List[Union[BusFault, LineFault, LineTrip, BusTrip, MachineTrip]]</text>
</a>
</g>
</g>
<!-- pypsse.models.Contingencies&#45;&gt;pypsse.models.BusFault -->
<g id="edge1" class="edge">
<title>pypsse.models.Contingencies:e&#45;&gt;pypsse.models.BusFault:w</title>
<path fill="none" stroke="black" d="M453,-387.5C584.21,-387.5 439.27,-650.06 541.9,-677.23"/>
<polygon fill="black" stroke="black" points="550.74,-678.28 560.14,-683.93 556.03,-678.91 560.34,-679.42 560.34,-679.42 560.34,-679.42 556.03,-678.91 561.2,-674.99 550.74,-678.28"/>
<ellipse fill="none" stroke="black" cx="545.06" cy="-677.61" rx="4" ry="4"/>
</g>
<!-- pypsse.models.Contingencies&#45;&gt;pypsse.models.BusTrip -->
<g id="edge2" class="edge">
<title>pypsse.models.Contingencies:e&#45;&gt;pypsse.models.BusTrip:w</title>
<path fill="none" stroke="black" d="M453,-387.5C526.2,-387.5 523.06,-472.36 582.84,-487.27"/>
<polygon fill="black" stroke="black" points="591.73,-488.31 601.15,-493.93 597.03,-488.92 601.34,-489.42 601.34,-489.42 601.34,-489.42 597.03,-488.92 602.19,-484.99 591.73,-488.31"/>
<ellipse fill="none" stroke="black" cx="586.05" cy="-487.65" rx="4" ry="4"/>
</g>
<!-- pypsse.models.LineFault -->
<g id="node4" class="node">
<title>pypsse.models.LineFault</title>
<g id="a_node4"><a xlink:title="pypsse.models.LineFault&#10;&#10;Line fault model defination&#10;">
<polygon fill="none" stroke="black" points="561,-376.5 561,-398.5 717,-398.5 717,-376.5 561,-376.5"/>
<text text-anchor="start" x="610.5" y="-383.2" font-family="Times New Roman,serif" font-weight="bold" font-size="14.00">LineFault</text>
<polygon fill="none" stroke="black" points="561,-354.5 561,-376.5 657,-376.5 657,-354.5 561,-354.5"/>
<text text-anchor="start" x="596.62" y="-360.2" font-family="Times New Roman,serif" font-size="14.00">time</text>
<polygon fill="none" stroke="black" points="657,-354.5 657,-376.5 717,-376.5 717,-354.5 657,-354.5"/>
<text text-anchor="start" x="674.62" y="-360.2" font-family="Times New Roman,serif" font-size="14.00">float</text>
<polygon fill="none" stroke="black" points="561,-332.5 561,-354.5 657,-354.5 657,-332.5 561,-332.5"/>
<text text-anchor="start" x="588.38" y="-338.2" font-family="Times New Roman,serif" font-size="14.00">bus_ids</text>
<polygon fill="none" stroke="black" points="657,-332.5 657,-354.5 717,-354.5 717,-332.5 657,-332.5"/>
<text text-anchor="start" x="664.88" y="-338.2" font-family="Times New Roman,serif" font-size="14.00">List[int]</text>
<polygon fill="none" stroke="black" points="561,-310.5 561,-332.5 657,-332.5 657,-310.5 561,-310.5"/>
<text text-anchor="start" x="586.5" y="-316.2" font-family="Times New Roman,serif" font-size="14.00">duration</text>
<polygon fill="none" stroke="black" points="657,-310.5 657,-332.5 717,-332.5 717,-310.5 657,-310.5"/>
<text text-anchor="start" x="674.62" y="-316.2" font-family="Times New Roman,serif" font-size="14.00">float</text>
<polygon fill="none" stroke="black" points="561,-288.5 561,-310.5 657,-310.5 657,-288.5 561,-288.5"/>
<text text-anchor="start" x="586.88" y="-294.2" font-family="Times New Roman,serif" font-size="14.00">bus_trip</text>
<polygon fill="none" stroke="black" points="657,-288.5 657,-310.5 717,-310.5 717,-288.5 657,-288.5"/>
<text text-anchor="start" x="675" y="-294.2" font-family="Times New Roman,serif" font-size="14.00">bool</text>
<polygon fill="none" stroke="black" points="561,-266.5 561,-288.5 657,-288.5 657,-266.5 561,-266.5"/>
<text text-anchor="start" x="581.62" y="-272.2" font-family="Times New Roman,serif" font-size="14.00">trip_delay</text>
<polygon fill="none" stroke="black" points="657,-266.5 657,-288.5 717,-288.5 717,-266.5 657,-266.5"/>
<text text-anchor="start" x="674.62" y="-272.2" font-family="Times New Roman,serif" font-size="14.00">float</text>
<polygon fill="none" stroke="black" points="561,-244.5 561,-266.5 657,-266.5 657,-244.5 561,-244.5"/>
<text text-anchor="start" x="563.62" y="-250.2" font-family="Times New Roman,serif" font-size="14.00">fault_impedance</text>
<polygon fill="none" stroke="black" points="657,-244.5 657,-266.5 717,-266.5 717,-244.5 657,-244.5"/>
<text text-anchor="start" x="659.62" y="-250.2" font-family="Times New Roman,serif" font-size="14.00">List[float]</text>
</a>
</g>
</g>
<!-- pypsse.models.Contingencies&#45;&gt;pypsse.models.LineFault -->
<g id="edge3" class="edge">
<title>pypsse.models.Contingencies:e&#45;&gt;pypsse.models.LineFault:w</title>
<path fill="none" stroke="black" d="M453,-387.5C493.88,-387.5 508.64,-387.5 541.77,-387.5"/>
<polygon fill="black" stroke="black" points="550.67,-387.5 560.67,-392 556,-387.5 560.33,-387.5 560.33,-387.5 560.33,-387.5 556,-387.5 560.67,-383 550.67,-387.5"/>
<ellipse fill="none" stroke="black" cx="544.95" cy="-387.5" rx="4" ry="4"/>
</g>
<!-- pypsse.models.LineTrip -->
<g id="node5" class="node">
<title>pypsse.models.LineTrip</title>
<g id="a_node5"><a xlink:title="pypsse.models.LineTrip&#10;&#10;Line trip model defination&#10;">
<polygon fill="none" stroke="black" points="590.5,-186.5 590.5,-208.5 687.5,-208.5 687.5,-186.5 590.5,-186.5"/>
<text text-anchor="start" x="613.12" y="-193.2" font-family="Times New Roman,serif" font-weight="bold" font-size="14.00">LineTrip</text>
<polygon fill="none" stroke="black" points="590.5,-164.5 590.5,-186.5 637.5,-186.5 637.5,-164.5 590.5,-164.5"/>
<text text-anchor="start" x="601.62" y="-170.2" font-family="Times New Roman,serif" font-size="14.00">time</text>
<polygon fill="none" stroke="black" points="637.5,-164.5 637.5,-186.5 687.5,-186.5 687.5,-164.5 637.5,-164.5"/>
<text text-anchor="start" x="650.12" y="-170.2" font-family="Times New Roman,serif" font-size="14.00">float</text>
<polygon fill="none" stroke="black" points="590.5,-142.5 590.5,-164.5 637.5,-164.5 637.5,-142.5 590.5,-142.5"/>
<text text-anchor="start" x="593.38" y="-148.2" font-family="Times New Roman,serif" font-size="14.00">bus_ids</text>
<polygon fill="none" stroke="black" points="637.5,-142.5 637.5,-164.5 687.5,-164.5 687.5,-142.5 637.5,-142.5"/>
<text text-anchor="start" x="640.38" y="-148.2" font-family="Times New Roman,serif" font-size="14.00">List[int]</text>
</a>
</g>
</g>
<!-- pypsse.models.Contingencies&#45;&gt;pypsse.models.LineTrip -->
<g id="edge4" class="edge">
<title>pypsse.models.Contingencies:e&#45;&gt;pypsse.models.LineTrip:w</title>
<path fill="none" stroke="black" d="M453,-387.5C549.75,-387.5 494.13,-222.59 570.05,-200.04"/>
<polygon fill="black" stroke="black" points="578.76,-198.87 589.27,-202 584.04,-198.16 588.34,-197.59 588.34,-197.59 588.34,-197.59 584.04,-198.16 588.07,-193.08 578.76,-198.87"/>
<ellipse fill="none" stroke="black" cx="573.09" cy="-199.63" rx="4" ry="4"/>
</g>
<!-- pypsse.models.MachineTrip -->
<g id="node6" class="node">
<title>pypsse.models.MachineTrip</title>
<g id="a_node6"><a xlink:title="pypsse.models.MachineTrip&#10;&#10;Machine trip model defination&#10;">
<polygon fill="none" stroke="black" points="589.5,-84.5 589.5,-106.5 688.5,-106.5 688.5,-84.5 589.5,-84.5"/>
<text text-anchor="start" x="600.75" y="-91.2" font-family="Times New Roman,serif" font-weight="bold" font-size="14.00">MachineTrip</text>
<polygon fill="none" stroke="black" points="589.5,-62.5 589.5,-84.5 658.5,-84.5 658.5,-62.5 589.5,-62.5"/>
<text text-anchor="start" x="611.62" y="-68.2" font-family="Times New Roman,serif" font-size="14.00">time</text>
<polygon fill="none" stroke="black" points="658.5,-62.5 658.5,-84.5 688.5,-84.5 688.5,-62.5 658.5,-62.5"/>
<text text-anchor="start" x="661.12" y="-68.2" font-family="Times New Roman,serif" font-size="14.00">float</text>
<polygon fill="none" stroke="black" points="589.5,-40.5 589.5,-62.5 658.5,-62.5 658.5,-40.5 589.5,-40.5"/>
<text text-anchor="start" x="606" y="-46.2" font-family="Times New Roman,serif" font-size="14.00">bus_id</text>
<polygon fill="none" stroke="black" points="658.5,-40.5 658.5,-62.5 688.5,-62.5 688.5,-40.5 658.5,-40.5"/>
<text text-anchor="start" x="666.38" y="-46.2" font-family="Times New Roman,serif" font-size="14.00">int</text>
<polygon fill="none" stroke="black" points="589.5,-18.5 589.5,-40.5 658.5,-40.5 658.5,-18.5 589.5,-18.5"/>
<text text-anchor="start" x="592.12" y="-24.2" font-family="Times New Roman,serif" font-size="14.00">machine_id</text>
<polygon fill="none" stroke="black" points="658.5,-18.5 658.5,-40.5 688.5,-40.5 688.5,-18.5 658.5,-18.5"/>
<text text-anchor="start" x="666.75" y="-24.2" font-family="Times New Roman,serif" font-size="14.00">str</text>
</a>
</g>
</g>
<!-- pypsse.models.Contingencies&#45;&gt;pypsse.models.MachineTrip -->
<g id="edge5" class="edge">
<title>pypsse.models.Contingencies:e&#45;&gt;pypsse.models.MachineTrip:w</title>
<path fill="none" stroke="black" d="M453,-387.5C589,-387.5 459.06,-123.32 569.09,-97.52"/>
<polygon fill="black" stroke="black" points="577.72,-96.6 588.15,-100.01 583.03,-96.03 587.33,-95.57 587.33,-95.57 587.33,-95.57 583.03,-96.03 587.19,-91.06 577.72,-96.6"/>
<ellipse fill="none" stroke="black" cx="572.04" cy="-97.21" rx="4" ry="4"/>
</g>
</g>
</svg>
