<?xml version="1.0" encoding="UTF-8" standalone="no"?>
<!DOCTYPE svg PUBLIC "-//W3C//DTD SVG 1.1//EN"
 "http://www.w3.org/Graphics/SVG/1.1/DTD/svg11.dtd">
<!-- Generated by graphviz version 9.0.0 (0)
 -->
<!-- Title: Entity Relationship Diagram Pages: 1 -->
<svg width="443pt" height="313pt"
 viewBox="0.00 0.00 443.00 312.50" xmlns="http://www.w3.org/2000/svg" xmlns:xlink="http://www.w3.org/1999/xlink">
<g id="graph0" class="graph" transform="scale(1 1) rotate(0) translate(4 308.5)">
<title>Entity Relationship Diagram</title>
<polygon fill="white" stroke="none" points="-4,4 -4,-308.5 439,-308.5 439,4 -4,4"/>
<text text-anchor="middle" x="217.5" y="-5.95" font-family="Times New Roman,serif" font-size="9.00" fill="#a8a8a8">Created by erdantic v0.6.0 &lt;https://github.com/drivendataorg/erdantic&gt;</text>
<!-- pypsse.models.ExportAssetTypes -->
<g id="node1" class="node">
<title>pypsse.models.ExportAssetTypes</title>
<g id="a_node1"><a xlink:title="pypsse.models.ExportAssetTypes&#10;&#10;Valid export models and associated options&#10;">
<polygon fill="none" stroke="black" points="0,-282.5 0,-304.5 435,-304.5 435,-282.5 0,-282.5"/>
<text text-anchor="start" x="165" y="-289.2" font-family="Times New Roman,serif" font-weight="bold" font-size="14.00">ExportAssetTypes</text>
<polygon fill="none" stroke="black" points="0,-260.5 0,-282.5 120,-282.5 120,-260.5 0,-260.5"/>
<text text-anchor="start" x="45" y="-266.2" font-family="Times New Roman,serif" font-size="14.00">buses</text>
<polygon fill="none" stroke="black" points="120,-260.5 120,-282.5 435,-282.5 435,-260.5 120,-260.5"/>
<text text-anchor="start" x="165.38" y="-266.2" font-family="Times New Roman,serif" font-size="14.00">Optional[List[BusProperties(str, Enum)]]</text>
<polygon fill="none" stroke="black" points="0,-238.5 0,-260.5 120,-260.5 120,-238.5 0,-238.5"/>
<text text-anchor="start" x="46.12" y="-244.2" font-family="Times New Roman,serif" font-size="14.00">areas</text>
<polygon fill="none" stroke="black" points="120,-238.5 120,-260.5 435,-260.5 435,-238.5 120,-238.5"/>
<text text-anchor="start" x="162.75" y="-244.2" font-family="Times New Roman,serif" font-size="14.00">Optional[List[AreaProperties(str, Enum)]]</text>
<polygon fill="none" stroke="black" points="0,-216.5 0,-238.5 120,-238.5 120,-216.5 0,-216.5"/>
<text text-anchor="start" x="44.62" y="-222.2" font-family="Times New Roman,serif" font-size="14.00">zones</text>
<polygon fill="none" stroke="black" points="120,-216.5 120,-238.5 435,-238.5 435,-216.5 120,-216.5"/>
<text text-anchor="start" x="162" y="-222.2" font-family="Times New Roman,serif" font-size="14.00">Optional[List[ZoneProperties(str, Enum)]]</text>
<polygon fill="none" stroke="black" points="0,-194.5 0,-216.5 120,-216.5 120,-194.5 0,-194.5"/>
<text text-anchor="start" x="39.38" y="-200.2" font-family="Times New Roman,serif" font-size="14.00">stations</text>
<polygon fill="none" stroke="black" points="120,-194.5 120,-216.5 435,-216.5 435,-194.5 120,-194.5"/>
<text text-anchor="start" x="156.75" y="-200.2" font-family="Times New Roman,serif" font-size="14.00">Optional[List[StationProperties(str, Enum)]]</text>
<polygon fill="none" stroke="black" points="0,-172.5 0,-194.5 120,-194.5 120,-172.5 0,-172.5"/>
<text text-anchor="start" x="6.38" y="-178.2" font-family="Times New Roman,serif" font-size="14.00">dctransmissionlines</text>
<polygon fill="none" stroke="black" points="120,-172.5 120,-194.5 435,-194.5 435,-172.5 120,-172.5"/>
<text text-anchor="start" x="154.12" y="-178.2" font-family="Times New Roman,serif" font-size="14.00">Optional[List[DCLineProperties(str, Enum)]]</text>
<polygon fill="none" stroke="black" points="0,-150.5 0,-172.5 120,-172.5 120,-150.5 0,-150.5"/>
<text text-anchor="start" x="45.75" y="-156.2" font-family="Times New Roman,serif" font-size="14.00">loads</text>
<polygon fill="none" stroke="black" points="120,-150.5 120,-172.5 435,-172.5 435,-150.5 120,-150.5"/>
<text text-anchor="start" x="162" y="-156.2" font-family="Times New Roman,serif" font-size="14.00">Optional[List[LoadProperties(str, Enum)]]</text>
<polygon fill="none" stroke="black" points="0,-128.5 0,-150.5 120,-150.5 120,-128.5 0,-128.5"/>
<text text-anchor="start" x="25.5" y="-134.2" font-family="Times New Roman,serif" font-size="14.00">fixed_shunts</text>
<polygon fill="none" stroke="black" points="120,-128.5 120,-150.5 435,-150.5 435,-128.5 120,-128.5"/>
<text text-anchor="start" x="144.75" y="-134.2" font-family="Times New Roman,serif" font-size="14.00">Optional[List[FixedShuntProperties(str, Enum)]]</text>
<polygon fill="none" stroke="black" points="0,-106.5 0,-128.5 120,-128.5 120,-106.5 0,-106.5"/>
<text text-anchor="start" x="15.38" y="-112.2" font-family="Times New Roman,serif" font-size="14.00">switched_shunts</text>
<polygon fill="none" stroke="black" points="120,-106.5 120,-128.5 435,-128.5 435,-106.5 120,-106.5"/>
<text text-anchor="start" x="135" y="-112.2" font-family="Times New Roman,serif" font-size="14.00">Optional[List[SwitchedShuntProperties(str, Enum)]]</text>
<polygon fill="none" stroke="black" points="0,-84.5 0,-106.5 120,-106.5 120,-84.5 0,-84.5"/>
<text text-anchor="start" x="25.5" y="-90.2" font-family="Times New Roman,serif" font-size="14.00">transformers</text>
<polygon fill="none" stroke="black" points="120,-84.5 120,-106.5 435,-106.5 435,-84.5 120,-84.5"/>
<text text-anchor="start" x="141.75" y="-90.2" font-family="Times New Roman,serif" font-size="14.00">Optional[List[TransformerProperties(str, Enum)]]</text>
<polygon fill="none" stroke="black" points="0,-62.5 0,-84.5 120,-84.5 120,-62.5 0,-62.5"/>
<text text-anchor="start" x="36" y="-68.2" font-family="Times New Roman,serif" font-size="14.00">branches</text>
<polygon fill="none" stroke="black" points="120,-62.5 120,-84.5 435,-84.5 435,-62.5 120,-62.5"/>
<text text-anchor="start" x="156.38" y="-68.2" font-family="Times New Roman,serif" font-size="14.00">Optional[List[BranchProperties(str, Enum)]]</text>
<polygon fill="none" stroke="black" points="0,-40.5 0,-62.5 120,-62.5 120,-40.5 0,-40.5"/>
<text text-anchor="start" x="3" y="-46.2" font-family="Times New Roman,serif" font-size="14.00">induction_generators</text>
<polygon fill="none" stroke="black" points="120,-40.5 120,-62.5 435,-62.5 435,-40.5 120,-40.5"/>
<text text-anchor="start" x="123" y="-46.2" font-family="Times New Roman,serif" font-size="14.00">Optional[List[InductionGeneratorProperties(str, Enum)]]</text>
<polygon fill="none" stroke="black" points="0,-18.5 0,-40.5 120,-40.5 120,-18.5 0,-18.5"/>
<text text-anchor="start" x="34.12" y="-24.2" font-family="Times New Roman,serif" font-size="14.00">machines</text>
<polygon fill="none" stroke="black" points="120,-18.5 120,-40.5 435,-40.5 435,-18.5 120,-18.5"/>
<text text-anchor="start" x="149.25" y="-24.2" font-family="Times New Roman,serif" font-size="14.00">Optional[List[MachinesProperties(str, Enum)]]</text>
</a>
</g>
</g>
</g>
</svg>
