<?xml version="1.0" encoding="UTF-8" standalone="no"?>
<!DOCTYPE svg PUBLIC "-//W3C//DTD SVG 1.1//EN"
 "http://www.w3.org/Graphics/SVG/1.1/DTD/svg11.dtd">
<!-- Generated by graphviz version 9.0.0 (0)
 -->
<!-- Title: Entity Relationship Diagram Pages: 1 -->
<svg width="835pt" height="635pt"
 viewBox="0.00 0.00 835.00 634.50" xmlns="http://www.w3.org/2000/svg" xmlns:xlink="http://www.w3.org/1999/xlink">
<g id="graph0" class="graph" transform="scale(1 1) rotate(0) translate(4 630.5)">
<title>Entity Relationship Diagram</title>
<polygon fill="white" stroke="none" points="-4,4 -4,-630.5 831,-630.5 831,4 -4,4"/>
<text text-anchor="middle" x="413.5" y="-5.95" font-family="Times New Roman,serif" font-size="9.00" fill="#a8a8a8">Created by erdantic v0.6.0 &lt;https://github.com/drivendataorg/erdantic&gt;</text>
<!-- pypsse.models.BusChannel -->
<g id="node1" class="node">
<title>pypsse.models.BusChannel</title>
<g id="a_node1"><a xlink:title="pypsse.models.BusChannel&#10;&#10;Bus channel model defination&#10;">
<polygon fill="none" stroke="black" points="609,-464.5 609,-486.5 827,-486.5 827,-464.5 609,-464.5"/>
<text text-anchor="start" x="682.75" y="-471.2" font-family="Times New Roman,serif" font-weight="bold" font-size="14.00">BusChannel</text>
<polygon fill="none" stroke="black" points="609,-442.5 609,-464.5 702,-464.5 702,-442.5 609,-442.5"/>
<text text-anchor="start" x="627.38" y="-448.2" font-family="Times New Roman,serif" font-size="14.00">asset_type</text>
<polygon fill="none" stroke="black" points="702,-442.5 702,-464.5 827,-464.5 827,-442.5 702,-442.5"/>
<text text-anchor="start" x="704.88" y="-448.2" font-family="Times New Roman,serif" font-size="14.00">ChannelTypes(Enum)</text>
<polygon fill="none" stroke="black" points="609,-420.5 609,-442.5 702,-442.5 702,-420.5 609,-420.5"/>
<text text-anchor="start" x="646.5" y="-426.2" font-family="Times New Roman,serif" font-size="14.00">use</text>
<polygon fill="none" stroke="black" points="702,-420.5 702,-442.5 827,-442.5 827,-420.5 702,-420.5"/>
<text text-anchor="start" x="714.25" y="-426.2" font-family="Times New Roman,serif" font-size="14.00">UseModes(Enum)</text>
<polygon fill="none" stroke="black" points="609,-398.5 609,-420.5 702,-420.5 702,-398.5 609,-398.5"/>
<text text-anchor="start" x="640.5" y="-404.2" font-family="Times New Roman,serif" font-size="14.00">regex</text>
<polygon fill="none" stroke="black" points="702,-398.5 702,-420.5 827,-420.5 827,-398.5 702,-398.5"/>
<text text-anchor="start" x="757.75" y="-404.2" font-family="Times New Roman,serif" font-size="14.00">str</text>
<polygon fill="none" stroke="black" points="609,-376.5 609,-398.5 702,-398.5 702,-376.5 609,-376.5"/>
<text text-anchor="start" x="630.75" y="-382.2" font-family="Times New Roman,serif" font-size="14.00">asset_list</text>
<polygon fill="none" stroke="black" points="702,-376.5 702,-398.5 827,-398.5 827,-376.5 702,-376.5"/>
<text text-anchor="start" x="742.38" y="-382.2" font-family="Times New Roman,serif" font-size="14.00">List[int]</text>
<polygon fill="none" stroke="black" points="609,-354.5 609,-376.5 702,-376.5 702,-354.5 609,-354.5"/>
<text text-anchor="start" x="612" y="-360.2" font-family="Times New Roman,serif" font-size="14.00">asset_properties</text>
<polygon fill="none" stroke="black" points="702,-354.5 702,-376.5 827,-376.5 827,-354.5 702,-354.5"/>
<text text-anchor="start" x="742.75" y="-360.2" font-family="Times New Roman,serif" font-size="14.00">List[str]</text>
</a>
</g>
</g>
<!-- pypsse.models.ExportAssetTypes -->
<g id="node2" class="node">
<title>pypsse.models.ExportAssetTypes</title>
<g id="a_node2"><a xlink:title="pypsse.models.ExportAssetTypes&#10;&#10;Valid export models and associated options&#10;">
<polygon fill="none" stroke="black" points="0,-604.5 0,-626.5 501,-626.5 501,-604.5 0,-604.5"/>
<text text-anchor="start" x="198" y="-611.2" font-family="Times New Roman,serif" font-weight="bold" font-size="14.00">ExportAssetTypes</text>
<polygon fill="none" stroke="black" points="0,-582.5 0,-604.5 120,-604.5 120,-582.5 0,-582.5"/>
<text text-anchor="start" x="45" y="-588.2" font-family="Times New Roman,serif" font-size="14.00">buses</text>
<polygon fill="none" stroke="black" points="120,-582.5 120,-604.5 501,-604.5 501,-582.5 120,-582.5"/>
<text text-anchor="start" x="208.5" y="-588.2" font-family="Times New Roman,serif" font-size="14.00">Optional[List[BusProperties(Enum)]]</text>
<polygon fill="none" stroke="black" points="0,-560.5 0,-582.5 120,-582.5 120,-560.5 0,-560.5"/>
<text text-anchor="start" x="46.12" y="-566.2" font-family="Times New Roman,serif" font-size="14.00">areas</text>
<polygon fill="none" stroke="black" points="120,-560.5 120,-582.5 501,-582.5 501,-560.5 120,-560.5"/>
<text text-anchor="start" x="205.88" y="-566.2" font-family="Times New Roman,serif" font-size="14.00">Optional[List[AreaProperties(Enum)]]</text>
<polygon fill="none" stroke="black" points="0,-538.5 0,-560.5 120,-560.5 120,-538.5 0,-538.5"/>
<text text-anchor="start" x="44.62" y="-544.2" font-family="Times New Roman,serif" font-size="14.00">zones</text>
<polygon fill="none" stroke="black" points="120,-538.5 120,-560.5 501,-560.5 501,-538.5 120,-538.5"/>
<text text-anchor="start" x="205.12" y="-544.2" font-family="Times New Roman,serif" font-size="14.00">Optional[List[ZoneProperties(Enum)]]</text>
<polygon fill="none" stroke="black" points="0,-516.5 0,-538.5 120,-538.5 120,-516.5 0,-516.5"/>
<text text-anchor="start" x="39.38" y="-522.2" font-family="Times New Roman,serif" font-size="14.00">stations</text>
<polygon fill="none" stroke="black" points="120,-516.5 120,-538.5 501,-538.5 501,-516.5 120,-516.5"/>
<text text-anchor="start" x="199.88" y="-522.2" font-family="Times New Roman,serif" font-size="14.00">Optional[List[StationProperties(Enum)]]</text>
<polygon fill="none" stroke="black" points="0,-494.5 0,-516.5 120,-516.5 120,-494.5 0,-494.5"/>
<text text-anchor="start" x="6.38" y="-500.2" font-family="Times New Roman,serif" font-size="14.00">dctransmissionlines</text>
<polygon fill="none" stroke="black" points="120,-494.5 120,-516.5 501,-516.5 501,-494.5 120,-494.5"/>
<text text-anchor="start" x="197.25" y="-500.2" font-family="Times New Roman,serif" font-size="14.00">Optional[List[DCLineProperties(Enum)]]</text>
<polygon fill="none" stroke="black" points="0,-472.5 0,-494.5 120,-494.5 120,-472.5 0,-472.5"/>
<text text-anchor="start" x="45.75" y="-478.2" font-family="Times New Roman,serif" font-size="14.00">loads</text>
<polygon fill="none" stroke="black" points="120,-472.5 120,-494.5 501,-494.5 501,-472.5 120,-472.5"/>
<text text-anchor="start" x="205.12" y="-478.2" font-family="Times New Roman,serif" font-size="14.00">Optional[List[LoadProperties(Enum)]]</text>
<polygon fill="none" stroke="black" points="0,-450.5 0,-472.5 120,-472.5 120,-450.5 0,-450.5"/>
<text text-anchor="start" x="25.5" y="-456.2" font-family="Times New Roman,serif" font-size="14.00">fixed_shunts</text>
<polygon fill="none" stroke="black" points="120,-450.5 120,-472.5 501,-472.5 501,-450.5 120,-450.5"/>
<text text-anchor="start" x="187.88" y="-456.2" font-family="Times New Roman,serif" font-size="14.00">Optional[List[FixedShuntProperties(Enum)]]</text>
<polygon fill="none" stroke="black" points="0,-428.5 0,-450.5 120,-450.5 120,-428.5 0,-428.5"/>
<text text-anchor="start" x="15.38" y="-434.2" font-family="Times New Roman,serif" font-size="14.00">switched_shunts</text>
<polygon fill="none" stroke="black" points="120,-428.5 120,-450.5 501,-450.5 501,-428.5 120,-428.5"/>
<text text-anchor="start" x="178.12" y="-434.2" font-family="Times New Roman,serif" font-size="14.00">Optional[List[SwitchedShuntProperties(Enum)]]</text>
<polygon fill="none" stroke="black" points="0,-406.5 0,-428.5 120,-428.5 120,-406.5 0,-406.5"/>
<text text-anchor="start" x="25.5" y="-412.2" font-family="Times New Roman,serif" font-size="14.00">transformers</text>
<polygon fill="none" stroke="black" points="120,-406.5 120,-428.5 501,-428.5 501,-406.5 120,-406.5"/>
<text text-anchor="start" x="184.88" y="-412.2" font-family="Times New Roman,serif" font-size="14.00">Optional[List[TransformerProperties(Enum)]]</text>
<polygon fill="none" stroke="black" points="0,-384.5 0,-406.5 120,-406.5 120,-384.5 0,-384.5"/>
<text text-anchor="start" x="36" y="-390.2" font-family="Times New Roman,serif" font-size="14.00">branches</text>
<polygon fill="none" stroke="black" points="120,-384.5 120,-406.5 501,-406.5 501,-384.5 120,-384.5"/>
<text text-anchor="start" x="199.5" y="-390.2" font-family="Times New Roman,serif" font-size="14.00">Optional[List[BranchProperties(Enum)]]</text>
<polygon fill="none" stroke="black" points="0,-362.5 0,-384.5 120,-384.5 120,-362.5 0,-362.5"/>
<text text-anchor="start" x="3" y="-368.2" font-family="Times New Roman,serif" font-size="14.00">induction_generators</text>
<polygon fill="none" stroke="black" points="120,-362.5 120,-384.5 501,-384.5 501,-362.5 120,-362.5"/>
<text text-anchor="start" x="166.12" y="-368.2" font-family="Times New Roman,serif" font-size="14.00">Optional[List[InductionGeneratorProperties(Enum)]]</text>
<polygon fill="none" stroke="black" points="0,-340.5 0,-362.5 120,-362.5 120,-340.5 0,-340.5"/>
<text text-anchor="start" x="34.12" y="-346.2" font-family="Times New Roman,serif" font-size="14.00">machines</text>
<polygon fill="none" stroke="black" points="120,-340.5 120,-362.5 501,-362.5 501,-340.5 120,-340.5"/>
<text text-anchor="start" x="192.38" y="-346.2" font-family="Times New Roman,serif" font-size="14.00">Optional[List[MachinesProperties(Enum)]]</text>
<polygon fill="none" stroke="black" points="0,-318.5 0,-340.5 120,-340.5 120,-318.5 0,-318.5"/>
<text text-anchor="start" x="36.38" y="-324.2" font-family="Times New Roman,serif" font-size="14.00">channels</text>
<polygon fill="none" stroke="black" points="120,-318.5 120,-340.5 501,-340.5 501,-318.5 120,-318.5"/>
<text text-anchor="start" x="260.62" y="-324.2" font-family="Times New Roman,serif" font-size="14.00">Optional[List[str]]</text>
<polygon fill="none" stroke="black" points="0,-296.5 0,-318.5 120,-318.5 120,-296.5 0,-296.5"/>
<text text-anchor="start" x="21.38" y="-302.2" font-family="Times New Roman,serif" font-size="14.00">channel_setup</text>
<polygon fill="none" stroke="black" points="120,-296.5 120,-318.5 501,-318.5 501,-296.5 120,-296.5"/>
<text text-anchor="start" x="122.62" y="-302.2" font-family="Times New Roman,serif" font-size="14.00">Optional[List[Union[BusChannel, LoadChannel, MachineChannel]]]</text>
</a>
</g>
</g>
<!-- pypsse.models.ExportAssetTypes&#45;&gt;pypsse.models.BusChannel -->
<g id="edge1" class="edge">
<title>pypsse.models.ExportAssetTypes:e&#45;&gt;pypsse.models.BusChannel:w</title>
<path fill="none" stroke="black" d="M501,-307.5C582.66,-307.5 530.36,-449.67 590.56,-472.44"/>
<polyline fill="none" stroke="black" points="609,-475.5 604.07,-474.68"/>
<polygon fill="black" stroke="black" points="603.9,-469.59 602.26,-479.45 600.29,-479.12 601.93,-469.26 603.9,-469.59"/>
<polyline fill="none" stroke="black" points="604.07,-474.68 599.13,-473.86"/>
<ellipse fill="none" stroke="black" cx="594.7" cy="-473.13" rx="4" ry="4"/>
</g>
<!-- pypsse.models.LoadChannel -->
<g id="node3" class="node">
<title>pypsse.models.LoadChannel</title>
<g id="a_node3"><a xlink:title="pypsse.models.LoadChannel&#10;&#10;Load channel model defination&#10;">
<polygon fill="none" stroke="black" points="609,-296.5 609,-318.5 827,-318.5 827,-296.5 609,-296.5"/>
<text text-anchor="start" x="678.62" y="-303.2" font-family="Times New Roman,serif" font-weight="bold" font-size="14.00">LoadChannel</text>
<polygon fill="none" stroke="black" points="609,-274.5 609,-296.5 702,-296.5 702,-274.5 609,-274.5"/>
<text text-anchor="start" x="627.38" y="-280.2" font-family="Times New Roman,serif" font-size="14.00">asset_type</text>
<polygon fill="none" stroke="black" points="702,-274.5 702,-296.5 827,-296.5 827,-274.5 702,-274.5"/>
<text text-anchor="start" x="704.88" y="-280.2" font-family="Times New Roman,serif" font-size="14.00">ChannelTypes(Enum)</text>
<polygon fill="none" stroke="black" points="609,-252.5 609,-274.5 702,-274.5 702,-252.5 609,-252.5"/>
<text text-anchor="start" x="646.5" y="-258.2" font-family="Times New Roman,serif" font-size="14.00">use</text>
<polygon fill="none" stroke="black" points="702,-252.5 702,-274.5 827,-274.5 827,-252.5 702,-252.5"/>
<text text-anchor="start" x="714.25" y="-258.2" font-family="Times New Roman,serif" font-size="14.00">UseModes(Enum)</text>
<polygon fill="none" stroke="black" points="609,-230.5 609,-252.5 702,-252.5 702,-230.5 609,-230.5"/>
<text text-anchor="start" x="640.5" y="-236.2" font-family="Times New Roman,serif" font-size="14.00">regex</text>
<polygon fill="none" stroke="black" points="702,-230.5 702,-252.5 827,-252.5 827,-230.5 702,-230.5"/>
<text text-anchor="start" x="757.75" y="-236.2" font-family="Times New Roman,serif" font-size="14.00">str</text>
<polygon fill="none" stroke="black" points="609,-208.5 609,-230.5 702,-230.5 702,-208.5 609,-208.5"/>
<text text-anchor="start" x="630.75" y="-214.2" font-family="Times New Roman,serif" font-size="14.00">asset_list</text>
<polygon fill="none" stroke="black" points="702,-208.5 702,-230.5 827,-230.5 827,-208.5 702,-208.5"/>
<text text-anchor="start" x="727.75" y="-214.2" font-family="Times New Roman,serif" font-size="14.00">List[List[str]]</text>
<polygon fill="none" stroke="black" points="609,-186.5 609,-208.5 702,-208.5 702,-186.5 609,-186.5"/>
<text text-anchor="start" x="612" y="-192.2" font-family="Times New Roman,serif" font-size="14.00">asset_properties</text>
<polygon fill="none" stroke="black" points="702,-186.5 702,-208.5 827,-208.5 827,-186.5 702,-186.5"/>
<text text-anchor="start" x="742.75" y="-192.2" font-family="Times New Roman,serif" font-size="14.00">List[str]</text>
</a>
</g>
</g>
<!-- pypsse.models.ExportAssetTypes&#45;&gt;pypsse.models.LoadChannel -->
<g id="edge2" class="edge">
<title>pypsse.models.ExportAssetTypes:e&#45;&gt;pypsse.models.LoadChannel:w</title>
<path fill="none" stroke="black" d="M501,-307.5C542.06,-307.5 556.78,-307.5 590.23,-307.5"/>
<polyline fill="none" stroke="black" points="609,-307.5 604,-307.5"/>
<polygon fill="black" stroke="black" points="603,-302.5 603,-312.5 601,-312.5 601,-302.5 603,-302.5"/>
<polyline fill="none" stroke="black" points="604,-307.5 599,-307.5"/>
<ellipse fill="none" stroke="black" cx="594.5" cy="-307.5" rx="4" ry="4"/>
</g>
<!-- pypsse.models.MachineChannel -->
<g id="node4" class="node">
<title>pypsse.models.MachineChannel</title>
<g id="a_node4"><a xlink:title="pypsse.models.MachineChannel&#10;&#10;Machine channel model defination&#10;">
<polygon fill="none" stroke="black" points="609,-128.5 609,-150.5 827,-150.5 827,-128.5 609,-128.5"/>
<text text-anchor="start" x="668.12" y="-135.2" font-family="Times New Roman,serif" font-weight="bold" font-size="14.00">MachineChannel</text>
<polygon fill="none" stroke="black" points="609,-106.5 609,-128.5 702,-128.5 702,-106.5 609,-106.5"/>
<text text-anchor="start" x="627.38" y="-112.2" font-family="Times New Roman,serif" font-size="14.00">asset_type</text>
<polygon fill="none" stroke="black" points="702,-106.5 702,-128.5 827,-128.5 827,-106.5 702,-106.5"/>
<text text-anchor="start" x="704.88" y="-112.2" font-family="Times New Roman,serif" font-size="14.00">ChannelTypes(Enum)</text>
<polygon fill="none" stroke="black" points="609,-84.5 609,-106.5 702,-106.5 702,-84.5 609,-84.5"/>
<text text-anchor="start" x="646.5" y="-90.2" font-family="Times New Roman,serif" font-size="14.00">use</text>
<polygon fill="none" stroke="black" points="702,-84.5 702,-106.5 827,-106.5 827,-84.5 702,-84.5"/>
<text text-anchor="start" x="714.25" y="-90.2" font-family="Times New Roman,serif" font-size="14.00">UseModes(Enum)</text>
<polygon fill="none" stroke="black" points="609,-62.5 609,-84.5 702,-84.5 702,-62.5 609,-62.5"/>
<text text-anchor="start" x="640.5" y="-68.2" font-family="Times New Roman,serif" font-size="14.00">regex</text>
<polygon fill="none" stroke="black" points="702,-62.5 702,-84.5 827,-84.5 827,-62.5 702,-62.5"/>
<text text-anchor="start" x="757.75" y="-68.2" font-family="Times New Roman,serif" font-size="14.00">str</text>
<polygon fill="none" stroke="black" points="609,-40.5 609,-62.5 702,-62.5 702,-40.5 609,-40.5"/>
<text text-anchor="start" x="630.75" y="-46.2" font-family="Times New Roman,serif" font-size="14.00">asset_list</text>
<polygon fill="none" stroke="black" points="702,-40.5 702,-62.5 827,-62.5 827,-40.5 702,-40.5"/>
<text text-anchor="start" x="727.75" y="-46.2" font-family="Times New Roman,serif" font-size="14.00">List[List[str]]</text>
<polygon fill="none" stroke="black" points="609,-18.5 609,-40.5 702,-40.5 702,-18.5 609,-18.5"/>
<text text-anchor="start" x="612" y="-24.2" font-family="Times New Roman,serif" font-size="14.00">asset_properties</text>
<polygon fill="none" stroke="black" points="702,-18.5 702,-40.5 827,-40.5 827,-18.5 702,-18.5"/>
<text text-anchor="start" x="742.75" y="-24.2" font-family="Times New Roman,serif" font-size="14.00">List[str]</text>
</a>
</g>
</g>
<!-- pypsse.models.ExportAssetTypes&#45;&gt;pypsse.models.MachineChannel -->
<g id="edge3" class="edge">
<title>pypsse.models.ExportAssetTypes:e&#45;&gt;pypsse.models.MachineChannel:w</title>
<path fill="none" stroke="black" d="M501,-307.5C582.66,-307.5 530.36,-165.33 590.56,-142.56"/>
<polyline fill="none" stroke="black" points="609,-139.5 604.07,-140.32"/>
<polygon fill="black" stroke="black" points="602.26,-135.55 603.9,-145.41 601.93,-145.74 600.29,-135.88 602.26,-135.55"/>
<polyline fill="none" stroke="black" points="604.07,-140.32 599.13,-141.14"/>
<ellipse fill="none" stroke="black" cx="594.7" cy="-141.87" rx="4" ry="4"/>
</g>
</g>
</svg>
