<?xml version="1.0" encoding="UTF-8" standalone="no"?>
<!DOCTYPE svg PUBLIC "-//W3C//DTD SVG 1.1//EN"
 "http://www.w3.org/Graphics/SVG/1.1/DTD/svg11.dtd">
<!-- Generated by graphviz version 9.0.0 (0)
 -->
<!-- Title: Entity Relationship Diagram Pages: 1 -->
<svg width="854pt" height="635pt"
 viewBox="0.00 0.00 854.00 634.50" xmlns="http://www.w3.org/2000/svg" xmlns:xlink="http://www.w3.org/1999/xlink">
<g id="graph0" class="graph" transform="scale(1 1) rotate(0) translate(4 630.5)">
<title>Entity Relationship Diagram</title>
<polygon fill="white" stroke="none" points="-4,4 -4,-630.5 850,-630.5 850,4 -4,4"/>
<text text-anchor="middle" x="423" y="-5.95" font-family="Times New Roman,serif" font-size="9.00" fill="#a8a8a8">Created by erdantic v0.6.0 &lt;https://github.com/drivendataorg/erdantic&gt;</text>
<!-- pypsse.models.BusChannel -->
<g id="node1" class="node">
<title>pypsse.models.BusChannel</title>
<g id="a_node1"><a xlink:title="pypsse.models.BusChannel&#10;&#10;Bus channel model defination&#10;">
<polygon fill="none" stroke="black" points="661,-464.5 661,-486.5 846,-486.5 846,-464.5 661,-464.5"/>
<text text-anchor="start" x="718.25" y="-471.2" font-family="Times New Roman,serif" font-weight="bold" font-size="14.00">BusChannel</text>
<polygon fill="none" stroke="black" points="661,-442.5 661,-464.5 721,-464.5 721,-442.5 661,-442.5"/>
<text text-anchor="start" x="679.38" y="-448.2" font-family="Times New Roman,serif" font-size="14.00">type</text>
<polygon fill="none" stroke="black" points="721,-442.5 721,-464.5 846,-464.5 846,-442.5 721,-442.5"/>
<text text-anchor="start" x="723.88" y="-448.2" font-family="Times New Roman,serif" font-size="14.00">ChannelTypes(Enum)</text>
<polygon fill="none" stroke="black" points="661,-420.5 661,-442.5 721,-442.5 721,-420.5 661,-420.5"/>
<text text-anchor="start" x="682" y="-426.2" font-family="Times New Roman,serif" font-size="14.00">use</text>
<polygon fill="none" stroke="black" points="721,-420.5 721,-442.5 846,-442.5 846,-420.5 721,-420.5"/>
<text text-anchor="start" x="733.25" y="-426.2" font-family="Times New Roman,serif" font-size="14.00">UseModes(Enum)</text>
<polygon fill="none" stroke="black" points="661,-398.5 661,-420.5 721,-420.5 721,-398.5 661,-398.5"/>
<text text-anchor="start" x="676" y="-404.2" font-family="Times New Roman,serif" font-size="14.00">regex</text>
<polygon fill="none" stroke="black" points="721,-398.5 721,-420.5 846,-420.5 846,-398.5 721,-398.5"/>
<text text-anchor="start" x="776.75" y="-404.2" font-family="Times New Roman,serif" font-size="14.00">str</text>
<polygon fill="none" stroke="black" points="661,-376.5 661,-398.5 721,-398.5 721,-376.5 661,-376.5"/>
<text text-anchor="start" x="682.75" y="-382.2" font-family="Times New Roman,serif" font-size="14.00">list</text>
<polygon fill="none" stroke="black" points="721,-376.5 721,-398.5 846,-398.5 846,-376.5 721,-376.5"/>
<text text-anchor="start" x="761.38" y="-382.2" font-family="Times New Roman,serif" font-size="14.00">List[int]</text>
<polygon fill="none" stroke="black" points="661,-354.5 661,-376.5 721,-376.5 721,-354.5 661,-354.5"/>
<text text-anchor="start" x="664" y="-360.2" font-family="Times New Roman,serif" font-size="14.00">properties</text>
<polygon fill="none" stroke="black" points="721,-354.5 721,-376.5 846,-376.5 846,-354.5 721,-354.5"/>
<text text-anchor="start" x="761.75" y="-360.2" font-family="Times New Roman,serif" font-size="14.00">List[str]</text>
</a>
</g>
</g>
<!-- pypsse.models.ExportFileOptions -->
<g id="node2" class="node">
<title>pypsse.models.ExportFileOptions</title>
<g id="a_node2"><a xlink:title="pypsse.models.ExportFileOptions&#10;&#10;Exoprt settings for a PyPSSE project&#10;">
<polygon fill="none" stroke="black" points="0,-604.5 0,-626.5 553,-626.5 553,-604.5 0,-604.5"/>
<text text-anchor="start" x="222.12" y="-611.2" font-family="Times New Roman,serif" font-weight="bold" font-size="14.00">ExportFileOptions</text>
<polygon fill="none" stroke="black" points="0,-582.5 0,-604.5 172,-604.5 172,-582.5 0,-582.5"/>
<text text-anchor="start" x="71" y="-588.2" font-family="Times New Roman,serif" font-size="14.00">buses</text>
<polygon fill="none" stroke="black" points="172,-582.5 172,-604.5 553,-604.5 553,-582.5 172,-582.5"/>
<text text-anchor="start" x="260.5" y="-588.2" font-family="Times New Roman,serif" font-size="14.00">Optional[List[BusProperties(Enum)]]</text>
<polygon fill="none" stroke="black" points="0,-560.5 0,-582.5 172,-582.5 172,-560.5 0,-560.5"/>
<text text-anchor="start" x="72.12" y="-566.2" font-family="Times New Roman,serif" font-size="14.00">areas</text>
<polygon fill="none" stroke="black" points="172,-560.5 172,-582.5 553,-582.5 553,-560.5 172,-560.5"/>
<text text-anchor="start" x="257.88" y="-566.2" font-family="Times New Roman,serif" font-size="14.00">Optional[List[AreaProperties(Enum)]]</text>
<polygon fill="none" stroke="black" points="0,-538.5 0,-560.5 172,-560.5 172,-538.5 0,-538.5"/>
<text text-anchor="start" x="70.62" y="-544.2" font-family="Times New Roman,serif" font-size="14.00">zones</text>
<polygon fill="none" stroke="black" points="172,-538.5 172,-560.5 553,-560.5 553,-538.5 172,-538.5"/>
<text text-anchor="start" x="257.12" y="-544.2" font-family="Times New Roman,serif" font-size="14.00">Optional[List[ZoneProperties(Enum)]]</text>
<polygon fill="none" stroke="black" points="0,-516.5 0,-538.5 172,-538.5 172,-516.5 0,-516.5"/>
<text text-anchor="start" x="65.38" y="-522.2" font-family="Times New Roman,serif" font-size="14.00">stations</text>
<polygon fill="none" stroke="black" points="172,-516.5 172,-538.5 553,-538.5 553,-516.5 172,-516.5"/>
<text text-anchor="start" x="251.88" y="-522.2" font-family="Times New Roman,serif" font-size="14.00">Optional[List[StationProperties(Enum)]]</text>
<polygon fill="none" stroke="black" points="0,-494.5 0,-516.5 172,-516.5 172,-494.5 0,-494.5"/>
<text text-anchor="start" x="32.38" y="-500.2" font-family="Times New Roman,serif" font-size="14.00">dctransmissionlines</text>
<polygon fill="none" stroke="black" points="172,-494.5 172,-516.5 553,-516.5 553,-494.5 172,-494.5"/>
<text text-anchor="start" x="249.25" y="-500.2" font-family="Times New Roman,serif" font-size="14.00">Optional[List[DCLineProperties(Enum)]]</text>
<polygon fill="none" stroke="black" points="0,-472.5 0,-494.5 172,-494.5 172,-472.5 0,-472.5"/>
<text text-anchor="start" x="71.75" y="-478.2" font-family="Times New Roman,serif" font-size="14.00">loads</text>
<polygon fill="none" stroke="black" points="172,-472.5 172,-494.5 553,-494.5 553,-472.5 172,-472.5"/>
<text text-anchor="start" x="257.12" y="-478.2" font-family="Times New Roman,serif" font-size="14.00">Optional[List[LoadProperties(Enum)]]</text>
<polygon fill="none" stroke="black" points="0,-450.5 0,-472.5 172,-472.5 172,-450.5 0,-450.5"/>
<text text-anchor="start" x="51.5" y="-456.2" font-family="Times New Roman,serif" font-size="14.00">fixed_shunts</text>
<polygon fill="none" stroke="black" points="172,-450.5 172,-472.5 553,-472.5 553,-450.5 172,-450.5"/>
<text text-anchor="start" x="239.88" y="-456.2" font-family="Times New Roman,serif" font-size="14.00">Optional[List[FixedShuntProperties(Enum)]]</text>
<polygon fill="none" stroke="black" points="0,-428.5 0,-450.5 172,-450.5 172,-428.5 0,-428.5"/>
<text text-anchor="start" x="41.38" y="-434.2" font-family="Times New Roman,serif" font-size="14.00">switched_shunts</text>
<polygon fill="none" stroke="black" points="172,-428.5 172,-450.5 553,-450.5 553,-428.5 172,-428.5"/>
<text text-anchor="start" x="230.12" y="-434.2" font-family="Times New Roman,serif" font-size="14.00">Optional[List[SwitchedShuntProperties(Enum)]]</text>
<polygon fill="none" stroke="black" points="0,-406.5 0,-428.5 172,-428.5 172,-406.5 0,-406.5"/>
<text text-anchor="start" x="51.5" y="-412.2" font-family="Times New Roman,serif" font-size="14.00">transformers</text>
<polygon fill="none" stroke="black" points="172,-406.5 172,-428.5 553,-428.5 553,-406.5 172,-406.5"/>
<text text-anchor="start" x="236.88" y="-412.2" font-family="Times New Roman,serif" font-size="14.00">Optional[List[TransformerProperties(Enum)]]</text>
<polygon fill="none" stroke="black" points="0,-384.5 0,-406.5 172,-406.5 172,-384.5 0,-384.5"/>
<text text-anchor="start" x="62" y="-390.2" font-family="Times New Roman,serif" font-size="14.00">branches</text>
<polygon fill="none" stroke="black" points="172,-384.5 172,-406.5 553,-406.5 553,-384.5 172,-384.5"/>
<text text-anchor="start" x="251.5" y="-390.2" font-family="Times New Roman,serif" font-size="14.00">Optional[List[BranchProperties(Enum)]]</text>
<polygon fill="none" stroke="black" points="0,-362.5 0,-384.5 172,-384.5 172,-362.5 0,-362.5"/>
<text text-anchor="start" x="29" y="-368.2" font-family="Times New Roman,serif" font-size="14.00">induction_generators</text>
<polygon fill="none" stroke="black" points="172,-362.5 172,-384.5 553,-384.5 553,-362.5 172,-362.5"/>
<text text-anchor="start" x="218.12" y="-368.2" font-family="Times New Roman,serif" font-size="14.00">Optional[List[InductionGeneratorProperties(Enum)]]</text>
<polygon fill="none" stroke="black" points="0,-340.5 0,-362.5 172,-362.5 172,-340.5 0,-340.5"/>
<text text-anchor="start" x="60.12" y="-346.2" font-family="Times New Roman,serif" font-size="14.00">machines</text>
<polygon fill="none" stroke="black" points="172,-340.5 172,-362.5 553,-362.5 553,-340.5 172,-340.5"/>
<text text-anchor="start" x="244.38" y="-346.2" font-family="Times New Roman,serif" font-size="14.00">Optional[List[MachinesProperties(Enum)]]</text>
<polygon fill="none" stroke="black" points="0,-318.5 0,-340.5 172,-340.5 172,-318.5 0,-318.5"/>
<text text-anchor="start" x="62.38" y="-324.2" font-family="Times New Roman,serif" font-size="14.00">channels</text>
<polygon fill="none" stroke="black" points="172,-318.5 172,-340.5 553,-340.5 553,-318.5 172,-318.5"/>
<text text-anchor="start" x="312.62" y="-324.2" font-family="Times New Roman,serif" font-size="14.00">Optional[List[str]]</text>
<polygon fill="none" stroke="black" points="0,-296.5 0,-318.5 172,-318.5 172,-296.5 0,-296.5"/>
<text text-anchor="start" x="47.38" y="-302.2" font-family="Times New Roman,serif" font-size="14.00">channel_setup</text>
<polygon fill="none" stroke="black" points="172,-296.5 172,-318.5 553,-318.5 553,-296.5 172,-296.5"/>
<text text-anchor="start" x="174.62" y="-302.2" font-family="Times New Roman,serif" font-size="14.00">Optional[List[Union[BusChannel, LoadChannel, MachineChannel]]]</text>
<polygon fill="none" stroke="black" points="0,-274.5 0,-296.5 172,-296.5 172,-274.5 0,-274.5"/>
<text text-anchor="start" x="2.75" y="-280.2" font-family="Times New Roman,serif" font-size="14.00">export_results_using_channels</text>
<polygon fill="none" stroke="black" points="172,-274.5 172,-296.5 553,-296.5 553,-274.5 172,-274.5"/>
<text text-anchor="start" x="350.5" y="-280.2" font-family="Times New Roman,serif" font-size="14.00">bool</text>
<polygon fill="none" stroke="black" points="0,-252.5 0,-274.5 172,-274.5 172,-252.5 0,-252.5"/>
<text text-anchor="start" x="15.88" y="-258.2" font-family="Times New Roman,serif" font-size="14.00">defined_subsystems_only</text>
<polygon fill="none" stroke="black" points="172,-252.5 172,-274.5 553,-274.5 553,-252.5 172,-252.5"/>
<text text-anchor="start" x="350.5" y="-258.2" font-family="Times New Roman,serif" font-size="14.00">bool</text>
<polygon fill="none" stroke="black" points="0,-230.5 0,-252.5 172,-252.5 172,-230.5 0,-230.5"/>
<text text-anchor="start" x="55.25" y="-236.2" font-family="Times New Roman,serif" font-size="14.00">file_format</text>
<polygon fill="none" stroke="black" points="172,-230.5 172,-252.5 553,-252.5 553,-230.5 172,-230.5"/>
<text text-anchor="start" x="304.38" y="-236.2" font-family="Times New Roman,serif" font-size="14.00">ExportModes(Enum)</text>
</a>
</g>
</g>
<!-- pypsse.models.ExportFileOptions&#45;&gt;pypsse.models.BusChannel -->
<g id="edge1" class="edge">
<title>pypsse.models.ExportFileOptions:e&#45;&gt;pypsse.models.BusChannel:w</title>
<path fill="none" stroke="black" d="M553,-307.5C634.66,-307.5 582.36,-449.67 642.56,-472.44"/>
<polyline fill="none" stroke="black" points="661,-475.5 656.07,-474.68"/>
<polygon fill="black" stroke="black" points="655.9,-469.59 654.26,-479.45 652.29,-479.12 653.93,-469.26 655.9,-469.59"/>
<polyline fill="none" stroke="black" points="656.07,-474.68 651.13,-473.86"/>
<ellipse fill="none" stroke="black" cx="646.7" cy="-473.13" rx="4" ry="4"/>
</g>
<!-- pypsse.models.LoadChannel -->
<g id="node3" class="node">
<title>pypsse.models.LoadChannel</title>
<g id="a_node3"><a xlink:title="pypsse.models.LoadChannel&#10;&#10;Load channel model defination&#10;">
<polygon fill="none" stroke="black" points="661,-296.5 661,-318.5 846,-318.5 846,-296.5 661,-296.5"/>
<text text-anchor="start" x="714.12" y="-303.2" font-family="Times New Roman,serif" font-weight="bold" font-size="14.00">LoadChannel</text>
<polygon fill="none" stroke="black" points="661,-274.5 661,-296.5 721,-296.5 721,-274.5 661,-274.5"/>
<text text-anchor="start" x="679.38" y="-280.2" font-family="Times New Roman,serif" font-size="14.00">type</text>
<polygon fill="none" stroke="black" points="721,-274.5 721,-296.5 846,-296.5 846,-274.5 721,-274.5"/>
<text text-anchor="start" x="723.88" y="-280.2" font-family="Times New Roman,serif" font-size="14.00">ChannelTypes(Enum)</text>
<polygon fill="none" stroke="black" points="661,-252.5 661,-274.5 721,-274.5 721,-252.5 661,-252.5"/>
<text text-anchor="start" x="682" y="-258.2" font-family="Times New Roman,serif" font-size="14.00">use</text>
<polygon fill="none" stroke="black" points="721,-252.5 721,-274.5 846,-274.5 846,-252.5 721,-252.5"/>
<text text-anchor="start" x="733.25" y="-258.2" font-family="Times New Roman,serif" font-size="14.00">UseModes(Enum)</text>
<polygon fill="none" stroke="black" points="661,-230.5 661,-252.5 721,-252.5 721,-230.5 661,-230.5"/>
<text text-anchor="start" x="676" y="-236.2" font-family="Times New Roman,serif" font-size="14.00">regex</text>
<polygon fill="none" stroke="black" points="721,-230.5 721,-252.5 846,-252.5 846,-230.5 721,-230.5"/>
<text text-anchor="start" x="776.75" y="-236.2" font-family="Times New Roman,serif" font-size="14.00">str</text>
<polygon fill="none" stroke="black" points="661,-208.5 661,-230.5 721,-230.5 721,-208.5 661,-208.5"/>
<text text-anchor="start" x="682.75" y="-214.2" font-family="Times New Roman,serif" font-size="14.00">list</text>
<polygon fill="none" stroke="black" points="721,-208.5 721,-230.5 846,-230.5 846,-208.5 721,-208.5"/>
<text text-anchor="start" x="746.75" y="-214.2" font-family="Times New Roman,serif" font-size="14.00">List[List[str]]</text>
<polygon fill="none" stroke="black" points="661,-186.5 661,-208.5 721,-208.5 721,-186.5 661,-186.5"/>
<text text-anchor="start" x="664" y="-192.2" font-family="Times New Roman,serif" font-size="14.00">properties</text>
<polygon fill="none" stroke="black" points="721,-186.5 721,-208.5 846,-208.5 846,-186.5 721,-186.5"/>
<text text-anchor="start" x="761.75" y="-192.2" font-family="Times New Roman,serif" font-size="14.00">List[str]</text>
</a>
</g>
</g>
<!-- pypsse.models.ExportFileOptions&#45;&gt;pypsse.models.LoadChannel -->
<g id="edge2" class="edge">
<title>pypsse.models.ExportFileOptions:e&#45;&gt;pypsse.models.LoadChannel:w</title>
<path fill="none" stroke="black" d="M553,-307.5C594.06,-307.5 608.78,-307.5 642.23,-307.5"/>
<polyline fill="none" stroke="black" points="661,-307.5 656,-307.5"/>
<polygon fill="black" stroke="black" points="655,-302.5 655,-312.5 653,-312.5 653,-302.5 655,-302.5"/>
<polyline fill="none" stroke="black" points="656,-307.5 651,-307.5"/>
<ellipse fill="none" stroke="black" cx="646.5" cy="-307.5" rx="4" ry="4"/>
</g>
<!-- pypsse.models.MachineChannel -->
<g id="node4" class="node">
<title>pypsse.models.MachineChannel</title>
<g id="a_node4"><a xlink:title="pypsse.models.MachineChannel&#10;&#10;Machine channel model defination&#10;">
<polygon fill="none" stroke="black" points="661,-128.5 661,-150.5 846,-150.5 846,-128.5 661,-128.5"/>
<text text-anchor="start" x="703.62" y="-135.2" font-family="Times New Roman,serif" font-weight="bold" font-size="14.00">MachineChannel</text>
<polygon fill="none" stroke="black" points="661,-106.5 661,-128.5 721,-128.5 721,-106.5 661,-106.5"/>
<text text-anchor="start" x="679.38" y="-112.2" font-family="Times New Roman,serif" font-size="14.00">type</text>
<polygon fill="none" stroke="black" points="721,-106.5 721,-128.5 846,-128.5 846,-106.5 721,-106.5"/>
<text text-anchor="start" x="723.88" y="-112.2" font-family="Times New Roman,serif" font-size="14.00">ChannelTypes(Enum)</text>
<polygon fill="none" stroke="black" points="661,-84.5 661,-106.5 721,-106.5 721,-84.5 661,-84.5"/>
<text text-anchor="start" x="682" y="-90.2" font-family="Times New Roman,serif" font-size="14.00">use</text>
<polygon fill="none" stroke="black" points="721,-84.5 721,-106.5 846,-106.5 846,-84.5 721,-84.5"/>
<text text-anchor="start" x="733.25" y="-90.2" font-family="Times New Roman,serif" font-size="14.00">UseModes(Enum)</text>
<polygon fill="none" stroke="black" points="661,-62.5 661,-84.5 721,-84.5 721,-62.5 661,-62.5"/>
<text text-anchor="start" x="676" y="-68.2" font-family="Times New Roman,serif" font-size="14.00">regex</text>
<polygon fill="none" stroke="black" points="721,-62.5 721,-84.5 846,-84.5 846,-62.5 721,-62.5"/>
<text text-anchor="start" x="776.75" y="-68.2" font-family="Times New Roman,serif" font-size="14.00">str</text>
<polygon fill="none" stroke="black" points="661,-40.5 661,-62.5 721,-62.5 721,-40.5 661,-40.5"/>
<text text-anchor="start" x="682.75" y="-46.2" font-family="Times New Roman,serif" font-size="14.00">list</text>
<polygon fill="none" stroke="black" points="721,-40.5 721,-62.5 846,-62.5 846,-40.5 721,-40.5"/>
<text text-anchor="start" x="746.75" y="-46.2" font-family="Times New Roman,serif" font-size="14.00">List[List[str]]</text>
<polygon fill="none" stroke="black" points="661,-18.5 661,-40.5 721,-40.5 721,-18.5 661,-18.5"/>
<text text-anchor="start" x="664" y="-24.2" font-family="Times New Roman,serif" font-size="14.00">properties</text>
<polygon fill="none" stroke="black" points="721,-18.5 721,-40.5 846,-40.5 846,-18.5 721,-18.5"/>
<text text-anchor="start" x="761.75" y="-24.2" font-family="Times New Roman,serif" font-size="14.00">List[str]</text>
</a>
</g>
</g>
<!-- pypsse.models.ExportFileOptions&#45;&gt;pypsse.models.MachineChannel -->
<g id="edge3" class="edge">
<title>pypsse.models.ExportFileOptions:e&#45;&gt;pypsse.models.MachineChannel:w</title>
<path fill="none" stroke="black" d="M553,-307.5C634.66,-307.5 582.36,-165.33 642.56,-142.56"/>
<polyline fill="none" stroke="black" points="661,-139.5 656.07,-140.32"/>
<polygon fill="black" stroke="black" points="654.26,-135.55 655.9,-145.41 653.93,-145.74 652.29,-135.88 654.26,-135.55"/>
<polyline fill="none" stroke="black" points="656.07,-140.32 651.13,-141.14"/>
<ellipse fill="none" stroke="black" cx="646.7" cy="-141.87" rx="4" ry="4"/>
</g>
</g>
</svg>
