<?xml version="1.0" encoding="UTF-8" standalone="no"?>
<!DOCTYPE svg PUBLIC "-//W3C//DTD SVG 1.1//EN"
 "http://www.w3.org/Graphics/SVG/1.1/DTD/svg11.dtd">
<!-- Generated by graphviz version 9.0.0 (0)
 -->
<!-- Title: Entity Relationship Diagram Pages: 1 -->
<svg width="275pt" height="181pt"
 viewBox="0.00 0.00 274.50 180.50" xmlns="http://www.w3.org/2000/svg" xmlns:xlink="http://www.w3.org/1999/xlink">
<g id="graph0" class="graph" transform="scale(1 1) rotate(0) translate(4 176.5)">
<title>Entity Relationship Diagram</title>
<polygon fill="white" stroke="none" points="-4,4 -4,-176.5 270.5,-176.5 270.5,4 -4,4"/>
<text text-anchor="middle" x="133.25" y="-5.95" font-family="Times New Roman,serif" font-size="9.00" fill="#a8a8a8">Created by erdantic v0.6.0 &lt;https://github.com/drivendataorg/erdantic&gt;</text>
<!-- pypsse.models.ExportSettings -->
<g id="node1" class="node">
<title>pypsse.models.ExportSettings</title>
<g id="a_node1"><a xlink:title="pypsse.models.ExportSettings&#10;&#10;Export setting model defination&#10;">
<polygon fill="none" stroke="black" points="58.75,-150.5 58.75,-172.5 207.75,-172.5 207.75,-150.5 58.75,-150.5"/>
<text text-anchor="start" x="90.12" y="-157.2" font-family="Times New Roman,serif" font-weight="bold" font-size="14.00">ExportSettings</text>
<polygon fill="none" stroke="black" points="58.75,-128.5 58.75,-150.5 177.75,-150.5 177.75,-128.5 58.75,-128.5"/>
<text text-anchor="start" x="93.88" y="-134.2" font-family="Times New Roman,serif" font-size="14.00">outx_file</text>
<polygon fill="none" stroke="black" points="177.75,-128.5 177.75,-150.5 207.75,-150.5 207.75,-128.5 177.75,-128.5"/>
<text text-anchor="start" x="180.75" y="-134.2" font-family="Times New Roman,serif" font-size="14.00">Path</text>
<polygon fill="none" stroke="black" points="58.75,-106.5 58.75,-128.5 177.75,-128.5 177.75,-106.5 58.75,-106.5"/>
<text text-anchor="start" x="97.25" y="-112.2" font-family="Times New Roman,serif" font-size="14.00">out_file</text>
<polygon fill="none" stroke="black" points="177.75,-106.5 177.75,-128.5 207.75,-128.5 207.75,-106.5 177.75,-106.5"/>
<text text-anchor="start" x="180.75" y="-112.2" font-family="Times New Roman,serif" font-size="14.00">Path</text>
<polygon fill="none" stroke="black" points="58.75,-84.5 58.75,-106.5 177.75,-106.5 177.75,-84.5 58.75,-84.5"/>
<text text-anchor="start" x="91.62" y="-90.2" font-family="Times New Roman,serif" font-size="14.00">excel_file</text>
<polygon fill="none" stroke="black" points="177.75,-84.5 177.75,-106.5 207.75,-106.5 207.75,-84.5 177.75,-84.5"/>
<text text-anchor="start" x="180.75" y="-90.2" font-family="Times New Roman,serif" font-size="14.00">Path</text>
<polygon fill="none" stroke="black" points="58.75,-62.5 58.75,-84.5 177.75,-84.5 177.75,-62.5 58.75,-62.5"/>
<text text-anchor="start" x="97.25" y="-68.2" font-family="Times New Roman,serif" font-size="14.00">log_file</text>
<polygon fill="none" stroke="black" points="177.75,-62.5 177.75,-84.5 207.75,-84.5 207.75,-62.5 177.75,-62.5"/>
<text text-anchor="start" x="180.75" y="-68.2" font-family="Times New Roman,serif" font-size="14.00">Path</text>
<polygon fill="none" stroke="black" points="58.75,-40.5 58.75,-62.5 177.75,-62.5 177.75,-40.5 58.75,-40.5"/>
<text text-anchor="start" x="77.38" y="-46.2" font-family="Times New Roman,serif" font-size="14.00">coordinate_file</text>
<polygon fill="none" stroke="black" points="177.75,-40.5 177.75,-62.5 207.75,-62.5 207.75,-40.5 177.75,-40.5"/>
<text text-anchor="start" x="180.75" y="-46.2" font-family="Times New Roman,serif" font-size="14.00">Path</text>
<polygon fill="none" stroke="black" points="58.75,-18.5 58.75,-40.5 177.75,-40.5 177.75,-18.5 58.75,-18.5"/>
<text text-anchor="start" x="61.62" y="-24.2" font-family="Times New Roman,serif" font-size="14.00">networkx_graph_file</text>
<polygon fill="none" stroke="black" points="177.75,-18.5 177.75,-40.5 207.75,-40.5 207.75,-18.5 177.75,-18.5"/>
<text text-anchor="start" x="180.75" y="-24.2" font-family="Times New Roman,serif" font-size="14.00">Path</text>
</a>
</g>
</g>
</g>
</svg>
