<?xml version="1.0" encoding="UTF-8" standalone="no"?>
<!DOCTYPE svg PUBLIC "-//W3C//DTD SVG 1.1//EN"
 "http://www.w3.org/Graphics/SVG/1.1/DTD/svg11.dtd">
<!-- Generated by graphviz version 9.0.0 (0)
 -->
<!-- Title: Entity Relationship Diagram Pages: 1 -->
<svg width="1377pt" height="723pt"
 viewBox="0.00 0.00 1377.00 722.50" xmlns="http://www.w3.org/2000/svg" xmlns:xlink="http://www.w3.org/1999/xlink">
<g id="graph0" class="graph" transform="scale(1 1) rotate(0) translate(4 718.5)">
<title>Entity Relationship Diagram</title>
<polygon fill="white" stroke="none" points="-4,4 -4,-718.5 1373,-718.5 1373,4 -4,4"/>
<text text-anchor="middle" x="684.5" y="-5.95" font-family="Times New Roman,serif" font-size="9.00" fill="#a8a8a8">Created by erdantic v0.6.0 &lt;https://github.com/drivendataorg/erdantic&gt;</text>
<!-- pypsse.models.BusChannel -->
<g id="node1" class="node">
<title>pypsse.models.BusChannel</title>
<g id="a_node1"><a xlink:title="pypsse.models.BusChannel&#10;&#10;Bus channel model defination&#10;">
<polygon fill="none" stroke="black" points="1150,-464.5 1150,-486.5 1369,-486.5 1369,-464.5 1150,-464.5"/>
<text text-anchor="start" x="1224.25" y="-471.2" font-family="Times New Roman,serif" font-weight="bold" font-size="14.00">BusChannel</text>
<polygon fill="none" stroke="black" points="1150,-442.5 1150,-464.5 1243,-464.5 1243,-442.5 1150,-442.5"/>
<text text-anchor="start" x="1168.38" y="-448.2" font-family="Times New Roman,serif" font-size="14.00">asset_type</text>
<polygon fill="none" stroke="black" points="1243,-442.5 1243,-464.5 1369,-464.5 1369,-442.5 1243,-442.5"/>
<text text-anchor="start" x="1266.25" y="-448.2" font-family="Times New Roman,serif" font-size="14.00">Literal[&#39;buses&#39;]</text>
<polygon fill="none" stroke="black" points="1150,-420.5 1150,-442.5 1243,-442.5 1243,-420.5 1150,-420.5"/>
<text text-anchor="start" x="1187.5" y="-426.2" font-family="Times New Roman,serif" font-size="14.00">use</text>
<polygon fill="none" stroke="black" points="1243,-420.5 1243,-442.5 1369,-442.5 1369,-420.5 1243,-420.5"/>
<text text-anchor="start" x="1245.62" y="-426.2" font-family="Times New Roman,serif" font-size="14.00">UseModes(str, Enum)</text>
<polygon fill="none" stroke="black" points="1150,-398.5 1150,-420.5 1243,-420.5 1243,-398.5 1150,-398.5"/>
<text text-anchor="start" x="1181.5" y="-404.2" font-family="Times New Roman,serif" font-size="14.00">regex</text>
<polygon fill="none" stroke="black" points="1243,-398.5 1243,-420.5 1369,-420.5 1369,-398.5 1243,-398.5"/>
<text text-anchor="start" x="1299.25" y="-404.2" font-family="Times New Roman,serif" font-size="14.00">str</text>
<polygon fill="none" stroke="black" points="1150,-376.5 1150,-398.5 1243,-398.5 1243,-376.5 1150,-376.5"/>
<text text-anchor="start" x="1171.75" y="-382.2" font-family="Times New Roman,serif" font-size="14.00">asset_list</text>
<polygon fill="none" stroke="black" points="1243,-376.5 1243,-398.5 1369,-398.5 1369,-376.5 1243,-376.5"/>
<text text-anchor="start" x="1283.88" y="-382.2" font-family="Times New Roman,serif" font-size="14.00">List[int]</text>
<polygon fill="none" stroke="black" points="1150,-354.5 1150,-376.5 1243,-376.5 1243,-354.5 1150,-354.5"/>
<text text-anchor="start" x="1153" y="-360.2" font-family="Times New Roman,serif" font-size="14.00">asset_properties</text>
<polygon fill="none" stroke="black" points="1243,-354.5 1243,-376.5 1369,-376.5 1369,-354.5 1243,-354.5"/>
<text text-anchor="start" x="1284.25" y="-360.2" font-family="Times New Roman,serif" font-size="14.00">List[str]</text>
</a>
</g>
</g>
<!-- pypsse.models.ExportFileOptions -->
<g id="node2" class="node">
<title>pypsse.models.ExportFileOptions</title>
<g id="a_node2"><a xlink:title="pypsse.models.ExportFileOptions&#10;&#10;Export settings for a PyPSSE project&#10;">
<polygon fill="none" stroke="black" points="0,-692.5 0,-714.5 1042,-714.5 1042,-692.5 0,-692.5"/>
<text text-anchor="start" x="466.62" y="-699.2" font-family="Times New Roman,serif" font-weight="bold" font-size="14.00">ExportFileOptions</text>
<polygon fill="none" stroke="black" points="0,-670.5 0,-692.5 172,-692.5 172,-670.5 0,-670.5"/>
<text text-anchor="start" x="71" y="-676.2" font-family="Times New Roman,serif" font-size="14.00">buses</text>
<polygon fill="none" stroke="black" points="172,-670.5 172,-692.5 1042,-692.5 1042,-670.5 172,-670.5"/>
<text text-anchor="start" x="494.88" y="-676.2" font-family="Times New Roman,serif" font-size="14.00">Optional[List[BusProperties(str, Enum)]]</text>
<polygon fill="none" stroke="black" points="0,-648.5 0,-670.5 172,-670.5 172,-648.5 0,-648.5"/>
<text text-anchor="start" x="72.12" y="-654.2" font-family="Times New Roman,serif" font-size="14.00">areas</text>
<polygon fill="none" stroke="black" points="172,-648.5 172,-670.5 1042,-670.5 1042,-648.5 172,-648.5"/>
<text text-anchor="start" x="492.25" y="-654.2" font-family="Times New Roman,serif" font-size="14.00">Optional[List[AreaProperties(str, Enum)]]</text>
<polygon fill="none" stroke="black" points="0,-626.5 0,-648.5 172,-648.5 172,-626.5 0,-626.5"/>
<text text-anchor="start" x="70.62" y="-632.2" font-family="Times New Roman,serif" font-size="14.00">zones</text>
<polygon fill="none" stroke="black" points="172,-626.5 172,-648.5 1042,-648.5 1042,-626.5 172,-626.5"/>
<text text-anchor="start" x="491.5" y="-632.2" font-family="Times New Roman,serif" font-size="14.00">Optional[List[ZoneProperties(str, Enum)]]</text>
<polygon fill="none" stroke="black" points="0,-604.5 0,-626.5 172,-626.5 172,-604.5 0,-604.5"/>
<text text-anchor="start" x="65.38" y="-610.2" font-family="Times New Roman,serif" font-size="14.00">stations</text>
<polygon fill="none" stroke="black" points="172,-604.5 172,-626.5 1042,-626.5 1042,-604.5 172,-604.5"/>
<text text-anchor="start" x="486.25" y="-610.2" font-family="Times New Roman,serif" font-size="14.00">Optional[List[StationProperties(str, Enum)]]</text>
<polygon fill="none" stroke="black" points="0,-582.5 0,-604.5 172,-604.5 172,-582.5 0,-582.5"/>
<text text-anchor="start" x="32.38" y="-588.2" font-family="Times New Roman,serif" font-size="14.00">dctransmissionlines</text>
<polygon fill="none" stroke="black" points="172,-582.5 172,-604.5 1042,-604.5 1042,-582.5 172,-582.5"/>
<text text-anchor="start" x="483.62" y="-588.2" font-family="Times New Roman,serif" font-size="14.00">Optional[List[DCLineProperties(str, Enum)]]</text>
<polygon fill="none" stroke="black" points="0,-560.5 0,-582.5 172,-582.5 172,-560.5 0,-560.5"/>
<text text-anchor="start" x="71.75" y="-566.2" font-family="Times New Roman,serif" font-size="14.00">loads</text>
<polygon fill="none" stroke="black" points="172,-560.5 172,-582.5 1042,-582.5 1042,-560.5 172,-560.5"/>
<text text-anchor="start" x="491.5" y="-566.2" font-family="Times New Roman,serif" font-size="14.00">Optional[List[LoadProperties(str, Enum)]]</text>
<polygon fill="none" stroke="black" points="0,-538.5 0,-560.5 172,-560.5 172,-538.5 0,-538.5"/>
<text text-anchor="start" x="51.5" y="-544.2" font-family="Times New Roman,serif" font-size="14.00">fixed_shunts</text>
<polygon fill="none" stroke="black" points="172,-538.5 172,-560.5 1042,-560.5 1042,-538.5 172,-538.5"/>
<text text-anchor="start" x="474.25" y="-544.2" font-family="Times New Roman,serif" font-size="14.00">Optional[List[FixedShuntProperties(str, Enum)]]</text>
<polygon fill="none" stroke="black" points="0,-516.5 0,-538.5 172,-538.5 172,-516.5 0,-516.5"/>
<text text-anchor="start" x="41.38" y="-522.2" font-family="Times New Roman,serif" font-size="14.00">switched_shunts</text>
<polygon fill="none" stroke="black" points="172,-516.5 172,-538.5 1042,-538.5 1042,-516.5 172,-516.5"/>
<text text-anchor="start" x="464.5" y="-522.2" font-family="Times New Roman,serif" font-size="14.00">Optional[List[SwitchedShuntProperties(str, Enum)]]</text>
<polygon fill="none" stroke="black" points="0,-494.5 0,-516.5 172,-516.5 172,-494.5 0,-494.5"/>
<text text-anchor="start" x="51.5" y="-500.2" font-family="Times New Roman,serif" font-size="14.00">transformers</text>
<polygon fill="none" stroke="black" points="172,-494.5 172,-516.5 1042,-516.5 1042,-494.5 172,-494.5"/>
<text text-anchor="start" x="471.25" y="-500.2" font-family="Times New Roman,serif" font-size="14.00">Optional[List[TransformerProperties(str, Enum)]]</text>
<polygon fill="none" stroke="black" points="0,-472.5 0,-494.5 172,-494.5 172,-472.5 0,-472.5"/>
<text text-anchor="start" x="62" y="-478.2" font-family="Times New Roman,serif" font-size="14.00">branches</text>
<polygon fill="none" stroke="black" points="172,-472.5 172,-494.5 1042,-494.5 1042,-472.5 172,-472.5"/>
<text text-anchor="start" x="485.88" y="-478.2" font-family="Times New Roman,serif" font-size="14.00">Optional[List[BranchProperties(str, Enum)]]</text>
<polygon fill="none" stroke="black" points="0,-450.5 0,-472.5 172,-472.5 172,-450.5 0,-450.5"/>
<text text-anchor="start" x="29" y="-456.2" font-family="Times New Roman,serif" font-size="14.00">induction_generators</text>
<polygon fill="none" stroke="black" points="172,-450.5 172,-472.5 1042,-472.5 1042,-450.5 172,-450.5"/>
<text text-anchor="start" x="452.5" y="-456.2" font-family="Times New Roman,serif" font-size="14.00">Optional[List[InductionGeneratorProperties(str, Enum)]]</text>
<polygon fill="none" stroke="black" points="0,-428.5 0,-450.5 172,-450.5 172,-428.5 0,-428.5"/>
<text text-anchor="start" x="60.12" y="-434.2" font-family="Times New Roman,serif" font-size="14.00">machines</text>
<polygon fill="none" stroke="black" points="172,-428.5 172,-450.5 1042,-450.5 1042,-428.5 172,-428.5"/>
<text text-anchor="start" x="478.75" y="-434.2" font-family="Times New Roman,serif" font-size="14.00">Optional[List[MachinesProperties(str, Enum)]]</text>
<polygon fill="none" stroke="black" points="0,-406.5 0,-428.5 172,-428.5 172,-406.5 0,-406.5"/>
<text text-anchor="start" x="2.75" y="-412.2" font-family="Times New Roman,serif" font-size="14.00">export_results_using_channels</text>
<polygon fill="none" stroke="black" points="172,-406.5 172,-428.5 1042,-428.5 1042,-406.5 172,-406.5"/>
<text text-anchor="start" x="595" y="-412.2" font-family="Times New Roman,serif" font-size="14.00">bool</text>
<polygon fill="none" stroke="black" points="0,-384.5 0,-406.5 172,-406.5 172,-384.5 0,-384.5"/>
<text text-anchor="start" x="42.5" y="-390.2" font-family="Times New Roman,serif" font-size="14.00">filename_prefix</text>
<polygon fill="none" stroke="black" points="172,-384.5 172,-406.5 1042,-406.5 1042,-384.5 172,-384.5"/>
<text text-anchor="start" x="600.25" y="-390.2" font-family="Times New Roman,serif" font-size="14.00">str</text>
<polygon fill="none" stroke="black" points="0,-362.5 0,-384.5 172,-384.5 172,-362.5 0,-362.5"/>
<text text-anchor="start" x="15.88" y="-368.2" font-family="Times New Roman,serif" font-size="14.00">defined_subsystems_only</text>
<polygon fill="none" stroke="black" points="172,-362.5 172,-384.5 1042,-384.5 1042,-362.5 172,-362.5"/>
<text text-anchor="start" x="595" y="-368.2" font-family="Times New Roman,serif" font-size="14.00">bool</text>
<polygon fill="none" stroke="black" points="0,-340.5 0,-362.5 172,-362.5 172,-340.5 0,-340.5"/>
<text text-anchor="start" x="55.25" y="-346.2" font-family="Times New Roman,serif" font-size="14.00">file_format</text>
<polygon fill="none" stroke="black" points="172,-340.5 172,-362.5 1042,-362.5 1042,-340.5 172,-340.5"/>
<text text-anchor="start" x="538.75" y="-346.2" font-family="Times New Roman,serif" font-size="14.00">ExportModes(str, Enum)</text>
<polygon fill="none" stroke="black" points="0,-318.5 0,-340.5 172,-340.5 172,-318.5 0,-318.5"/>
<text text-anchor="start" x="62.38" y="-324.2" font-family="Times New Roman,serif" font-size="14.00">channels</text>
<polygon fill="none" stroke="black" points="172,-318.5 172,-340.5 1042,-340.5 1042,-318.5 172,-318.5"/>
<text text-anchor="start" x="557.12" y="-324.2" font-family="Times New Roman,serif" font-size="14.00">Optional[List[str]]</text>
<polygon fill="none" stroke="black" points="0,-296.5 0,-318.5 172,-318.5 172,-296.5 0,-296.5"/>
<text text-anchor="start" x="47.38" y="-302.2" font-family="Times New Roman,serif" font-size="14.00">channel_setup</text>
<polygon fill="none" stroke="black" points="172,-296.5 172,-318.5 1042,-318.5 1042,-296.5 172,-296.5"/>
<text text-anchor="start" x="174.62" y="-302.2" font-family="Times New Roman,serif" font-size="14.00">Optional[List[Annotated[Union[BusChannel, LoadChannel, MachineChannel], FieldInfo(annotation=NoneType, required=True, discriminator=&#39;asset_type&#39;)]]]</text>
</a>
</g>
</g>
<!-- pypsse.models.ExportFileOptions&#45;&gt;pypsse.models.BusChannel -->
<g id="edge1" class="edge">
<title>pypsse.models.ExportFileOptions:e&#45;&gt;pypsse.models.BusChannel:w</title>
<path fill="none" stroke="black" d="M1042,-307.5C1123.66,-307.5 1071.36,-449.67 1131.56,-472.44"/>
<polyline fill="none" stroke="black" points="1150,-475.5 1145.07,-474.68"/>
<polygon fill="black" stroke="black" points="1144.9,-469.59 1143.26,-479.45 1141.29,-479.12 1142.93,-469.26 1144.9,-469.59"/>
<polyline fill="none" stroke="black" points="1145.07,-474.68 1140.13,-473.86"/>
<ellipse fill="none" stroke="black" cx="1135.7" cy="-473.13" rx="4" ry="4"/>
</g>
<!-- pypsse.models.LoadChannel -->
<g id="node3" class="node">
<title>pypsse.models.LoadChannel</title>
<g id="a_node3"><a xlink:title="pypsse.models.LoadChannel&#10;&#10;Load channel model defination&#10;">
<polygon fill="none" stroke="black" points="1150,-296.5 1150,-318.5 1369,-318.5 1369,-296.5 1150,-296.5"/>
<text text-anchor="start" x="1220.12" y="-303.2" font-family="Times New Roman,serif" font-weight="bold" font-size="14.00">LoadChannel</text>
<polygon fill="none" stroke="black" points="1150,-274.5 1150,-296.5 1243,-296.5 1243,-274.5 1150,-274.5"/>
<text text-anchor="start" x="1168.38" y="-280.2" font-family="Times New Roman,serif" font-size="14.00">asset_type</text>
<polygon fill="none" stroke="black" points="1243,-274.5 1243,-296.5 1369,-296.5 1369,-274.5 1243,-274.5"/>
<text text-anchor="start" x="1267" y="-280.2" font-family="Times New Roman,serif" font-size="14.00">Literal[&#39;loads&#39;]</text>
<polygon fill="none" stroke="black" points="1150,-252.5 1150,-274.5 1243,-274.5 1243,-252.5 1150,-252.5"/>
<text text-anchor="start" x="1187.5" y="-258.2" font-family="Times New Roman,serif" font-size="14.00">use</text>
<polygon fill="none" stroke="black" points="1243,-252.5 1243,-274.5 1369,-274.5 1369,-252.5 1243,-252.5"/>
<text text-anchor="start" x="1245.62" y="-258.2" font-family="Times New Roman,serif" font-size="14.00">UseModes(str, Enum)</text>
<polygon fill="none" stroke="black" points="1150,-230.5 1150,-252.5 1243,-252.5 1243,-230.5 1150,-230.5"/>
<text text-anchor="start" x="1181.5" y="-236.2" font-family="Times New Roman,serif" font-size="14.00">regex</text>
<polygon fill="none" stroke="black" points="1243,-230.5 1243,-252.5 1369,-252.5 1369,-230.5 1243,-230.5"/>
<text text-anchor="start" x="1299.25" y="-236.2" font-family="Times New Roman,serif" font-size="14.00">str</text>
<polygon fill="none" stroke="black" points="1150,-208.5 1150,-230.5 1243,-230.5 1243,-208.5 1150,-208.5"/>
<text text-anchor="start" x="1171.75" y="-214.2" font-family="Times New Roman,serif" font-size="14.00">asset_list</text>
<polygon fill="none" stroke="black" points="1243,-208.5 1243,-230.5 1369,-230.5 1369,-208.5 1243,-208.5"/>
<text text-anchor="start" x="1269.25" y="-214.2" font-family="Times New Roman,serif" font-size="14.00">List[List[str]]</text>
<polygon fill="none" stroke="black" points="1150,-186.5 1150,-208.5 1243,-208.5 1243,-186.5 1150,-186.5"/>
<text text-anchor="start" x="1153" y="-192.2" font-family="Times New Roman,serif" font-size="14.00">asset_properties</text>
<polygon fill="none" stroke="black" points="1243,-186.5 1243,-208.5 1369,-208.5 1369,-186.5 1243,-186.5"/>
<text text-anchor="start" x="1284.25" y="-192.2" font-family="Times New Roman,serif" font-size="14.00">List[str]</text>
</a>
</g>
</g>
<!-- pypsse.models.ExportFileOptions&#45;&gt;pypsse.models.LoadChannel -->
<g id="edge2" class="edge">
<title>pypsse.models.ExportFileOptions:e&#45;&gt;pypsse.models.LoadChannel:w</title>
<path fill="none" stroke="black" d="M1042,-307.5C1083.06,-307.5 1097.78,-307.5 1131.23,-307.5"/>
<polyline fill="none" stroke="black" points="1150,-307.5 1145,-307.5"/>
<polygon fill="black" stroke="black" points="1144,-302.5 1144,-312.5 1142,-312.5 1142,-302.5 1144,-302.5"/>
<polyline fill="none" stroke="black" points="1145,-307.5 1140,-307.5"/>
<ellipse fill="none" stroke="black" cx="1135.5" cy="-307.5" rx="4" ry="4"/>
</g>
<!-- pypsse.models.MachineChannel -->
<g id="node4" class="node">
<title>pypsse.models.MachineChannel</title>
<g id="a_node4"><a xlink:title="pypsse.models.MachineChannel&#10;&#10;Machine channel model defination&#10;">
<polygon fill="none" stroke="black" points="1150,-128.5 1150,-150.5 1369,-150.5 1369,-128.5 1150,-128.5"/>
<text text-anchor="start" x="1209.62" y="-135.2" font-family="Times New Roman,serif" font-weight="bold" font-size="14.00">MachineChannel</text>
<polygon fill="none" stroke="black" points="1150,-106.5 1150,-128.5 1243,-128.5 1243,-106.5 1150,-106.5"/>
<text text-anchor="start" x="1168.38" y="-112.2" font-family="Times New Roman,serif" font-size="14.00">asset_type</text>
<polygon fill="none" stroke="black" points="1243,-106.5 1243,-128.5 1369,-128.5 1369,-106.5 1243,-106.5"/>
<text text-anchor="start" x="1255.38" y="-112.2" font-family="Times New Roman,serif" font-size="14.00">Literal[&#39;machines&#39;]</text>
<polygon fill="none" stroke="black" points="1150,-84.5 1150,-106.5 1243,-106.5 1243,-84.5 1150,-84.5"/>
<text text-anchor="start" x="1187.5" y="-90.2" font-family="Times New Roman,serif" font-size="14.00">use</text>
<polygon fill="none" stroke="black" points="1243,-84.5 1243,-106.5 1369,-106.5 1369,-84.5 1243,-84.5"/>
<text text-anchor="start" x="1245.62" y="-90.2" font-family="Times New Roman,serif" font-size="14.00">UseModes(str, Enum)</text>
<polygon fill="none" stroke="black" points="1150,-62.5 1150,-84.5 1243,-84.5 1243,-62.5 1150,-62.5"/>
<text text-anchor="start" x="1181.5" y="-68.2" font-family="Times New Roman,serif" font-size="14.00">regex</text>
<polygon fill="none" stroke="black" points="1243,-62.5 1243,-84.5 1369,-84.5 1369,-62.5 1243,-62.5"/>
<text text-anchor="start" x="1299.25" y="-68.2" font-family="Times New Roman,serif" font-size="14.00">str</text>
<polygon fill="none" stroke="black" points="1150,-40.5 1150,-62.5 1243,-62.5 1243,-40.5 1150,-40.5"/>
<text text-anchor="start" x="1171.75" y="-46.2" font-family="Times New Roman,serif" font-size="14.00">asset_list</text>
<polygon fill="none" stroke="black" points="1243,-40.5 1243,-62.5 1369,-62.5 1369,-40.5 1243,-40.5"/>
<text text-anchor="start" x="1269.25" y="-46.2" font-family="Times New Roman,serif" font-size="14.00">List[List[str]]</text>
<polygon fill="none" stroke="black" points="1150,-18.5 1150,-40.5 1243,-40.5 1243,-18.5 1150,-18.5"/>
<text text-anchor="start" x="1153" y="-24.2" font-family="Times New Roman,serif" font-size="14.00">asset_properties</text>
<polygon fill="none" stroke="black" points="1243,-18.5 1243,-40.5 1369,-40.5 1369,-18.5 1243,-18.5"/>
<text text-anchor="start" x="1284.25" y="-24.2" font-family="Times New Roman,serif" font-size="14.00">List[str]</text>
</a>
</g>
</g>
<!-- pypsse.models.ExportFileOptions&#45;&gt;pypsse.models.MachineChannel -->
<g id="edge3" class="edge">
<title>pypsse.models.ExportFileOptions:e&#45;&gt;pypsse.models.MachineChannel:w</title>
<path fill="none" stroke="black" d="M1042,-307.5C1123.66,-307.5 1071.36,-165.33 1131.56,-142.56"/>
<polyline fill="none" stroke="black" points="1150,-139.5 1145.07,-140.32"/>
<polygon fill="black" stroke="black" points="1143.26,-135.55 1144.9,-145.41 1142.93,-145.74 1141.29,-135.88 1143.26,-135.55"/>
<polyline fill="none" stroke="black" points="1145.07,-140.32 1140.13,-141.14"/>
<ellipse fill="none" stroke="black" cx="1135.7" cy="-141.87" rx="4" ry="4"/>
</g>
</g>
</svg>
