<?xml version="1.0" encoding="UTF-8" standalone="no"?>
<!DOCTYPE svg PUBLIC "-//W3C//DTD SVG 1.1//EN"
 "http://www.w3.org/Graphics/SVG/1.1/DTD/svg11.dtd">
<!-- Generated by graphviz version 9.0.0 (0)
 -->
<!-- Title: Entity Relationship Diagram Pages: 1 -->
<svg width="754pt" height="423pt"
 viewBox="0.00 0.00 754.00 422.50" xmlns="http://www.w3.org/2000/svg" xmlns:xlink="http://www.w3.org/1999/xlink">
<g id="graph0" class="graph" transform="scale(1 1) rotate(0) translate(4 418.5)">
<title>Entity Relationship Diagram</title>
<polygon fill="white" stroke="none" points="-4,4 -4,-418.5 750,-418.5 750,4 -4,4"/>
<text text-anchor="middle" x="373" y="-5.95" font-family="Times New Roman,serif" font-size="9.00" fill="#a8a8a8">Created by erdantic v0.6.0 &lt;https://github.com/drivendataorg/erdantic&gt;</text>
<!-- pypsse.models.HelicsSettings -->
<g id="node1" class="node">
<title>pypsse.models.HelicsSettings</title>
<g id="a_node1"><a xlink:title="pypsse.models.HelicsSettings&#10;&#10;HELICS co&#45;simualtion setting model defination&#10;">
<polygon fill="none" stroke="black" points="0,-392.5 0,-414.5 369,-414.5 369,-392.5 0,-392.5"/>
<text text-anchor="start" x="143.62" y="-399.2" font-family="Times New Roman,serif" font-weight="bold" font-size="14.00">HelicsSettings</text>
<polygon fill="none" stroke="black" points="0,-370.5 0,-392.5 214,-392.5 214,-370.5 0,-370.5"/>
<text text-anchor="start" x="53" y="-376.2" font-family="Times New Roman,serif" font-size="14.00">cosimulation_mode</text>
<polygon fill="none" stroke="black" points="214,-370.5 214,-392.5 369,-392.5 369,-370.5 214,-370.5"/>
<text text-anchor="start" x="279.5" y="-376.2" font-family="Times New Roman,serif" font-size="14.00">bool</text>
<polygon fill="none" stroke="black" points="0,-348.5 0,-370.5 214,-370.5 214,-348.5 0,-348.5"/>
<text text-anchor="start" x="66.88" y="-354.2" font-family="Times New Roman,serif" font-size="14.00">federate_name</text>
<polygon fill="none" stroke="black" points="214,-348.5 214,-370.5 369,-370.5 369,-348.5 214,-348.5"/>
<text text-anchor="start" x="284.75" y="-354.2" font-family="Times New Roman,serif" font-size="14.00">str</text>
<polygon fill="none" stroke="black" points="0,-326.5 0,-348.5 214,-348.5 214,-326.5 0,-326.5"/>
<text text-anchor="start" x="78.12" y="-332.2" font-family="Times New Roman,serif" font-size="14.00">time_delta</text>
<polygon fill="none" stroke="black" points="214,-326.5 214,-348.5 369,-348.5 369,-326.5 214,-326.5"/>
<text text-anchor="start" x="266" y="-332.2" font-family="Times New Roman,serif" font-size="14.00">timedelta</text>
<polygon fill="none" stroke="black" points="0,-304.5 0,-326.5 214,-326.5 214,-304.5 0,-304.5"/>
<text text-anchor="start" x="80.38" y="-310.2" font-family="Times New Roman,serif" font-size="14.00">core_type</text>
<polygon fill="none" stroke="black" points="214,-304.5 214,-326.5 369,-326.5 369,-304.5 214,-304.5"/>
<text text-anchor="start" x="224" y="-310.2" font-family="Times New Roman,serif" font-size="14.00">HelicsCoreTypes(Enum)</text>
<polygon fill="none" stroke="black" points="0,-282.5 0,-304.5 214,-304.5 214,-282.5 0,-282.5"/>
<text text-anchor="start" x="66.88" y="-288.2" font-family="Times New Roman,serif" font-size="14.00">uninterruptible</text>
<polygon fill="none" stroke="black" points="214,-282.5 214,-304.5 369,-304.5 369,-282.5 214,-282.5"/>
<text text-anchor="start" x="279.5" y="-288.2" font-family="Times New Roman,serif" font-size="14.00">bool</text>
<polygon fill="none" stroke="black" points="0,-260.5 0,-282.5 214,-282.5 214,-260.5 0,-260.5"/>
<text text-anchor="start" x="50.75" y="-266.2" font-family="Times New Roman,serif" font-size="14.00">helics_logging_level</text>
<polygon fill="none" stroke="black" points="214,-260.5 214,-282.5 369,-282.5 369,-260.5 214,-260.5"/>
<text text-anchor="start" x="284.38" y="-266.2" font-family="Times New Roman,serif" font-size="14.00">int</text>
<polygon fill="none" stroke="black" points="0,-238.5 0,-260.5 214,-260.5 214,-238.5 0,-238.5"/>
<text text-anchor="start" x="51.88" y="-244.2" font-family="Times New Roman,serif" font-size="14.00">create_subscriptions</text>
<polygon fill="none" stroke="black" points="214,-238.5 214,-260.5 369,-260.5 369,-238.5 214,-238.5"/>
<text text-anchor="start" x="279.5" y="-244.2" font-family="Times New Roman,serif" font-size="14.00">bool</text>
<polygon fill="none" stroke="black" points="0,-216.5 0,-238.5 214,-238.5 214,-216.5 0,-216.5"/>
<text text-anchor="start" x="66.12" y="-222.2" font-family="Times New Roman,serif" font-size="14.00">iterative_mode</text>
<polygon fill="none" stroke="black" points="214,-216.5 214,-238.5 369,-238.5 369,-216.5 214,-216.5"/>
<text text-anchor="start" x="279.5" y="-222.2" font-family="Times New Roman,serif" font-size="14.00">bool</text>
<polygon fill="none" stroke="black" points="0,-194.5 0,-216.5 214,-216.5 214,-194.5 0,-194.5"/>
<text text-anchor="start" x="65.75" y="-200.2" font-family="Times New Roman,serif" font-size="14.00">error_tolerance</text>
<polygon fill="none" stroke="black" points="214,-194.5 214,-216.5 369,-216.5 369,-194.5 214,-194.5"/>
<text text-anchor="start" x="279.12" y="-200.2" font-family="Times New Roman,serif" font-size="14.00">float</text>
<polygon fill="none" stroke="black" points="0,-172.5 0,-194.5 214,-194.5 214,-172.5 0,-172.5"/>
<text text-anchor="start" x="60.12" y="-178.2" font-family="Times New Roman,serif" font-size="14.00">max_coiterations</text>
<polygon fill="none" stroke="black" points="214,-172.5 214,-194.5 369,-194.5 369,-172.5 214,-172.5"/>
<text text-anchor="start" x="284.38" y="-178.2" font-family="Times New Roman,serif" font-size="14.00">int</text>
<polygon fill="none" stroke="black" points="0,-150.5 0,-172.5 214,-172.5 214,-150.5 0,-150.5"/>
<text text-anchor="start" x="80.75" y="-156.2" font-family="Times New Roman,serif" font-size="14.00">broker_ip</text>
<polygon fill="none" stroke="black" points="214,-150.5 214,-172.5 369,-172.5 369,-150.5 214,-150.5"/>
<text text-anchor="start" x="248.38" y="-156.2" font-family="Times New Roman,serif" font-size="14.00">IPvAnyAddress</text>
<polygon fill="none" stroke="black" points="0,-128.5 0,-150.5 214,-150.5 214,-128.5 0,-128.5"/>
<text text-anchor="start" x="75.12" y="-134.2" font-family="Times New Roman,serif" font-size="14.00">broker_port</text>
<polygon fill="none" stroke="black" points="214,-128.5 214,-150.5 369,-150.5 369,-128.5 214,-128.5"/>
<text text-anchor="start" x="284.38" y="-134.2" font-family="Times New Roman,serif" font-size="14.00">int</text>
<polygon fill="none" stroke="black" points="0,-106.5 0,-128.5 214,-128.5 214,-106.5 0,-106.5"/>
<text text-anchor="start" x="2.75" y="-112.2" font-family="Times New Roman,serif" font-size="14.00">disable_generation_on_coupled_buses</text>
<polygon fill="none" stroke="black" points="214,-106.5 214,-128.5 369,-128.5 369,-106.5 214,-106.5"/>
<text text-anchor="start" x="279.5" y="-112.2" font-family="Times New Roman,serif" font-size="14.00">bool</text>
<polygon fill="none" stroke="black" points="0,-84.5 0,-106.5 214,-106.5 214,-84.5 0,-84.5"/>
<text text-anchor="start" x="74" y="-90.2" font-family="Times New Roman,serif" font-size="14.00">publications</text>
<polygon fill="none" stroke="black" points="214,-84.5 214,-106.5 369,-106.5 369,-84.5 214,-84.5"/>
<text text-anchor="start" x="216.88" y="-90.2" font-family="Times New Roman,serif" font-size="14.00">List[PublicationDefination]</text>
</a>
</g>
</g>
<!-- pypsse.models.PublicationDefination -->
<g id="node2" class="node">
<title>pypsse.models.PublicationDefination</title>
<g id="a_node2"><a xlink:title="pypsse.models.PublicationDefination&#10;&#10;Publication setting model defination&#10;&#10;Attributes:&#10; &#160;&#160;&#160;bus_subsystems (list(int)): Description of `attr1`.&#10; &#160;&#160;&#160;model_type (ModelTypes): asdsad.&#10; &#160;&#160;&#160;attmodel_typer2 (List, optional): Description of `attr2`.&#10;">
<polygon fill="none" stroke="black" points="477,-84.5 477,-106.5 746,-106.5 746,-84.5 477,-84.5"/>
<text text-anchor="start" x="548.12" y="-91.2" font-family="Times New Roman,serif" font-weight="bold" font-size="14.00">PublicationDefination</text>
<polygon fill="none" stroke="black" points="477,-62.5 477,-84.5 578,-84.5 578,-62.5 477,-62.5"/>
<text text-anchor="start" x="483.62" y="-68.2" font-family="Times New Roman,serif" font-size="14.00">bus_subsystems</text>
<polygon fill="none" stroke="black" points="578,-62.5 578,-84.5 746,-84.5 746,-62.5 578,-62.5"/>
<text text-anchor="start" x="639.88" y="-68.2" font-family="Times New Roman,serif" font-size="14.00">List[int]</text>
<polygon fill="none" stroke="black" points="477,-40.5 477,-62.5 578,-62.5 578,-40.5 477,-40.5"/>
<text text-anchor="start" x="495.25" y="-46.2" font-family="Times New Roman,serif" font-size="14.00">model_type</text>
<polygon fill="none" stroke="black" points="578,-40.5 578,-62.5 746,-62.5 746,-40.5 578,-40.5"/>
<text text-anchor="start" x="606.88" y="-46.2" font-family="Times New Roman,serif" font-size="14.00">ModelTypes(Enum)</text>
<polygon fill="none" stroke="black" points="477,-18.5 477,-40.5 578,-40.5 578,-18.5 477,-18.5"/>
<text text-anchor="start" x="479.88" y="-24.2" font-family="Times New Roman,serif" font-size="14.00">model_properties</text>
<polygon fill="none" stroke="black" points="578,-18.5 578,-40.5 746,-40.5 746,-18.5 578,-18.5"/>
<text text-anchor="start" x="580.62" y="-24.2" font-family="Times New Roman,serif" font-size="14.00">List[ModelProperties(Enum)]</text>
</a>
</g>
</g>
<!-- pypsse.models.HelicsSettings&#45;&gt;pypsse.models.PublicationDefination -->
<g id="edge1" class="edge">
<title>pypsse.models.HelicsSettings:e&#45;&gt;pypsse.models.PublicationDefination:w</title>
<path fill="none" stroke="black" d="M369,-95.5C409.5,-95.5 424.37,-95.5 456.86,-95.5"/>
<polygon fill="black" stroke="black" points="466.67,-95.5 476.67,-100 472,-95.5 476.33,-95.5 476.33,-95.5 476.33,-95.5 472,-95.5 476.67,-91 466.67,-95.5"/>
<ellipse fill="none" stroke="black" cx="460.95" cy="-95.5" rx="4" ry="4"/>
</g>
</g>
</svg>
