<?xml version="1.0" encoding="UTF-8" standalone="no"?>
<!DOCTYPE svg PUBLIC "-//W3C//DTD SVG 1.1//EN"
 "http://www.w3.org/Graphics/SVG/1.1/DTD/svg11.dtd">
<!-- Generated by graphviz version 9.0.0 (0)
 -->
<!-- Title: Entity Relationship Diagram Pages: 1 -->
<svg width="773pt" height="423pt"
 viewBox="0.00 0.00 773.00 422.50" xmlns="http://www.w3.org/2000/svg" xmlns:xlink="http://www.w3.org/1999/xlink">
<g id="graph0" class="graph" transform="scale(1 1) rotate(0) translate(4 418.5)">
<title>Entity Relationship Diagram</title>
<polygon fill="white" stroke="none" points="-4,4 -4,-418.5 769,-418.5 769,4 -4,4"/>
<text text-anchor="middle" x="382.5" y="-5.95" font-family="Times New Roman,serif" font-size="9.00" fill="#a8a8a8">Created by erdantic v0.6.0 &lt;https://github.com/drivendataorg/erdantic&gt;</text>
<!-- pypsse.models.HelicsSettings -->
<g id="node1" class="node">
<title>pypsse.models.HelicsSettings</title>
<g id="a_node1"><a xlink:title="pypsse.models.HelicsSettings&#10;&#10;HELICS co&#45;simualtion setting model defination&#10;">
<polygon fill="none" stroke="black" points="0,-392.5 0,-414.5 375,-414.5 375,-392.5 0,-392.5"/>
<text text-anchor="start" x="146.62" y="-399.2" font-family="Times New Roman,serif" font-weight="bold" font-size="14.00">HelicsSettings</text>
<polygon fill="none" stroke="black" points="0,-370.5 0,-392.5 214,-392.5 214,-370.5 0,-370.5"/>
<text text-anchor="start" x="53" y="-376.2" font-family="Times New Roman,serif" font-size="14.00">cosimulation_mode</text>
<polygon fill="none" stroke="black" points="214,-370.5 214,-392.5 375,-392.5 375,-370.5 214,-370.5"/>
<text text-anchor="start" x="282.5" y="-376.2" font-family="Times New Roman,serif" font-size="14.00">bool</text>
<polygon fill="none" stroke="black" points="0,-348.5 0,-370.5 214,-370.5 214,-348.5 0,-348.5"/>
<text text-anchor="start" x="66.88" y="-354.2" font-family="Times New Roman,serif" font-size="14.00">federate_name</text>
<polygon fill="none" stroke="black" points="214,-348.5 214,-370.5 375,-370.5 375,-348.5 214,-348.5"/>
<text text-anchor="start" x="287.75" y="-354.2" font-family="Times New Roman,serif" font-size="14.00">str</text>
<polygon fill="none" stroke="black" points="0,-326.5 0,-348.5 214,-348.5 214,-326.5 0,-326.5"/>
<text text-anchor="start" x="78.12" y="-332.2" font-family="Times New Roman,serif" font-size="14.00">time_delta</text>
<polygon fill="none" stroke="black" points="214,-326.5 214,-348.5 375,-348.5 375,-326.5 214,-326.5"/>
<text text-anchor="start" x="269" y="-332.2" font-family="Times New Roman,serif" font-size="14.00">timedelta</text>
<polygon fill="none" stroke="black" points="0,-304.5 0,-326.5 214,-326.5 214,-304.5 0,-304.5"/>
<text text-anchor="start" x="80.38" y="-310.2" font-family="Times New Roman,serif" font-size="14.00">core_type</text>
<polygon fill="none" stroke="black" points="214,-304.5 214,-326.5 375,-326.5 375,-304.5 214,-304.5"/>
<text text-anchor="start" x="216.88" y="-310.2" font-family="Times New Roman,serif" font-size="14.00">HelicsCoreTypes(str, Enum)</text>
<polygon fill="none" stroke="black" points="0,-282.5 0,-304.5 214,-304.5 214,-282.5 0,-282.5"/>
<text text-anchor="start" x="66.88" y="-288.2" font-family="Times New Roman,serif" font-size="14.00">uninterruptible</text>
<polygon fill="none" stroke="black" points="214,-282.5 214,-304.5 375,-304.5 375,-282.5 214,-282.5"/>
<text text-anchor="start" x="282.5" y="-288.2" font-family="Times New Roman,serif" font-size="14.00">bool</text>
<polygon fill="none" stroke="black" points="0,-260.5 0,-282.5 214,-282.5 214,-260.5 0,-260.5"/>
<text text-anchor="start" x="50.75" y="-266.2" font-family="Times New Roman,serif" font-size="14.00">helics_logging_level</text>
<polygon fill="none" stroke="black" points="214,-260.5 214,-282.5 375,-282.5 375,-260.5 214,-260.5"/>
<text text-anchor="start" x="287.38" y="-266.2" font-family="Times New Roman,serif" font-size="14.00">int</text>
<polygon fill="none" stroke="black" points="0,-238.5 0,-260.5 214,-260.5 214,-238.5 0,-238.5"/>
<text text-anchor="start" x="51.88" y="-244.2" font-family="Times New Roman,serif" font-size="14.00">create_subscriptions</text>
<polygon fill="none" stroke="black" points="214,-238.5 214,-260.5 375,-260.5 375,-238.5 214,-238.5"/>
<text text-anchor="start" x="282.5" y="-244.2" font-family="Times New Roman,serif" font-size="14.00">bool</text>
<polygon fill="none" stroke="black" points="0,-216.5 0,-238.5 214,-238.5 214,-216.5 0,-216.5"/>
<text text-anchor="start" x="66.12" y="-222.2" font-family="Times New Roman,serif" font-size="14.00">iterative_mode</text>
<polygon fill="none" stroke="black" points="214,-216.5 214,-238.5 375,-238.5 375,-216.5 214,-216.5"/>
<text text-anchor="start" x="282.5" y="-222.2" font-family="Times New Roman,serif" font-size="14.00">bool</text>
<polygon fill="none" stroke="black" points="0,-194.5 0,-216.5 214,-216.5 214,-194.5 0,-194.5"/>
<text text-anchor="start" x="65.75" y="-200.2" font-family="Times New Roman,serif" font-size="14.00">error_tolerance</text>
<polygon fill="none" stroke="black" points="214,-194.5 214,-216.5 375,-216.5 375,-194.5 214,-194.5"/>
<text text-anchor="start" x="282.12" y="-200.2" font-family="Times New Roman,serif" font-size="14.00">float</text>
<polygon fill="none" stroke="black" points="0,-172.5 0,-194.5 214,-194.5 214,-172.5 0,-172.5"/>
<text text-anchor="start" x="60.12" y="-178.2" font-family="Times New Roman,serif" font-size="14.00">max_coiterations</text>
<polygon fill="none" stroke="black" points="214,-172.5 214,-194.5 375,-194.5 375,-172.5 214,-172.5"/>
<text text-anchor="start" x="287.38" y="-178.2" font-family="Times New Roman,serif" font-size="14.00">int</text>
<polygon fill="none" stroke="black" points="0,-150.5 0,-172.5 214,-172.5 214,-150.5 0,-150.5"/>
<text text-anchor="start" x="80.75" y="-156.2" font-family="Times New Roman,serif" font-size="14.00">broker_ip</text>
<polygon fill="none" stroke="black" points="214,-150.5 214,-172.5 375,-172.5 375,-150.5 214,-150.5"/>
<text text-anchor="start" x="251.38" y="-156.2" font-family="Times New Roman,serif" font-size="14.00">IPvAnyAddress</text>
<polygon fill="none" stroke="black" points="0,-128.5 0,-150.5 214,-150.5 214,-128.5 0,-128.5"/>
<text text-anchor="start" x="75.12" y="-134.2" font-family="Times New Roman,serif" font-size="14.00">broker_port</text>
<polygon fill="none" stroke="black" points="214,-128.5 214,-150.5 375,-150.5 375,-128.5 214,-128.5"/>
<text text-anchor="start" x="287.38" y="-134.2" font-family="Times New Roman,serif" font-size="14.00">int</text>
<polygon fill="none" stroke="black" points="0,-106.5 0,-128.5 214,-128.5 214,-106.5 0,-106.5"/>
<text text-anchor="start" x="2.75" y="-112.2" font-family="Times New Roman,serif" font-size="14.00">disable_generation_on_coupled_buses</text>
<polygon fill="none" stroke="black" points="214,-106.5 214,-128.5 375,-128.5 375,-106.5 214,-106.5"/>
<text text-anchor="start" x="282.5" y="-112.2" font-family="Times New Roman,serif" font-size="14.00">bool</text>
<polygon fill="none" stroke="black" points="0,-84.5 0,-106.5 214,-106.5 214,-84.5 0,-84.5"/>
<text text-anchor="start" x="74" y="-90.2" font-family="Times New Roman,serif" font-size="14.00">publications</text>
<polygon fill="none" stroke="black" points="214,-84.5 214,-106.5 375,-106.5 375,-84.5 214,-84.5"/>
<text text-anchor="start" x="219.88" y="-90.2" font-family="Times New Roman,serif" font-size="14.00">List[PublicationDefination]</text>
</a>
</g>
</g>
<!-- pypsse.models.PublicationDefination -->
<g id="node2" class="node">
<title>pypsse.models.PublicationDefination</title>
<g id="a_node2"><a xlink:title="pypsse.models.PublicationDefination&#10;&#10;Publication setting model defination&#10;">
<polygon fill="none" stroke="black" points="483,-84.5 483,-106.5 765,-106.5 765,-84.5 483,-84.5"/>
<text text-anchor="start" x="560.62" y="-91.2" font-family="Times New Roman,serif" font-weight="bold" font-size="14.00">PublicationDefination</text>
<polygon fill="none" stroke="black" points="483,-62.5 483,-84.5 576,-84.5 576,-62.5 483,-62.5"/>
<text text-anchor="start" x="485.62" y="-68.2" font-family="Times New Roman,serif" font-size="14.00">bus_subsystems</text>
<polygon fill="none" stroke="black" points="576,-62.5 576,-84.5 765,-84.5 765,-62.5 576,-62.5"/>
<text text-anchor="start" x="648.38" y="-68.2" font-family="Times New Roman,serif" font-size="14.00">List[int]</text>
<polygon fill="none" stroke="black" points="483,-40.5 483,-62.5 576,-62.5 576,-40.5 483,-40.5"/>
<text text-anchor="start" x="501.38" y="-46.2" font-family="Times New Roman,serif" font-size="14.00">asset_type</text>
<polygon fill="none" stroke="black" points="576,-40.5 576,-62.5 765,-62.5 765,-40.5 576,-40.5"/>
<text text-anchor="start" x="605.25" y="-46.2" font-family="Times New Roman,serif" font-size="14.00">ModelTypes(str, Enum)</text>
<polygon fill="none" stroke="black" points="483,-18.5 483,-40.5 576,-40.5 576,-18.5 483,-18.5"/>
<text text-anchor="start" x="486" y="-24.2" font-family="Times New Roman,serif" font-size="14.00">asset_properties</text>
<polygon fill="none" stroke="black" points="576,-18.5 576,-40.5 765,-40.5 765,-18.5 576,-18.5"/>
<text text-anchor="start" x="579" y="-24.2" font-family="Times New Roman,serif" font-size="14.00">List[ModelProperties(str, Enum)]</text>
</a>
</g>
</g>
<!-- pypsse.models.HelicsSettings&#45;&gt;pypsse.models.PublicationDefination -->
<g id="edge1" class="edge">
<title>pypsse.models.HelicsSettings:e&#45;&gt;pypsse.models.PublicationDefination:w</title>
<path fill="none" stroke="black" d="M375,-95.5C415.5,-95.5 430.37,-95.5 462.86,-95.5"/>
<polygon fill="black" stroke="black" points="472.67,-95.5 482.67,-100 478,-95.5 482.33,-95.5 482.33,-95.5 482.33,-95.5 478,-95.5 482.67,-91 472.67,-95.5"/>
<ellipse fill="none" stroke="black" cx="466.95" cy="-95.5" rx="4" ry="4"/>
</g>
</g>
</svg>
