<?xml version="1.0" encoding="UTF-8" standalone="no"?>
<!DOCTYPE svg PUBLIC "-//W3C//DTD SVG 1.1//EN"
 "http://www.w3.org/Graphics/SVG/1.1/DTD/svg11.dtd">
<!-- Generated by graphviz version 9.0.0 (0)
 -->
<!-- Title: Entity Relationship Diagram Pages: 1 -->
<svg width="275pt" height="93pt"
 viewBox="0.00 0.00 274.50 92.50" xmlns="http://www.w3.org/2000/svg" xmlns:xlink="http://www.w3.org/1999/xlink">
<g id="graph0" class="graph" transform="scale(1 1) rotate(0) translate(4 88.5)">
<title>Entity Relationship Diagram</title>
<polygon fill="white" stroke="none" points="-4,4 -4,-88.5 270.5,-88.5 270.5,4 -4,4"/>
<text text-anchor="middle" x="133.25" y="-5.95" font-family="Times New Roman,serif" font-size="9.00" fill="#a8a8a8">Created by erdantic v0.6.0 &lt;https://github.com/drivendataorg/erdantic&gt;</text>
<!-- pypsse.models.LineTrip -->
<g id="node1" class="node">
<title>pypsse.models.LineTrip</title>
<g id="a_node1"><a xlink:title="pypsse.models.LineTrip&#10;&#10;Line trip model defination&#10;">
<polygon fill="none" stroke="black" points="84.75,-62.5 84.75,-84.5 181.75,-84.5 181.75,-62.5 84.75,-62.5"/>
<text text-anchor="start" x="107.38" y="-69.2" font-family="Times New Roman,serif" font-weight="bold" font-size="14.00">LineTrip</text>
<polygon fill="none" stroke="black" points="84.75,-40.5 84.75,-62.5 131.75,-62.5 131.75,-40.5 84.75,-40.5"/>
<text text-anchor="start" x="95.88" y="-46.2" font-family="Times New Roman,serif" font-size="14.00">time</text>
<polygon fill="none" stroke="black" points="131.75,-40.5 131.75,-62.5 181.75,-62.5 181.75,-40.5 131.75,-40.5"/>
<text text-anchor="start" x="144.38" y="-46.2" font-family="Times New Roman,serif" font-size="14.00">float</text>
<polygon fill="none" stroke="black" points="84.75,-18.5 84.75,-40.5 131.75,-40.5 131.75,-18.5 84.75,-18.5"/>
<text text-anchor="start" x="87.62" y="-24.2" font-family="Times New Roman,serif" font-size="14.00">bus_ids</text>
<polygon fill="none" stroke="black" points="131.75,-18.5 131.75,-40.5 181.75,-40.5 181.75,-18.5 131.75,-18.5"/>
<text text-anchor="start" x="134.62" y="-24.2" font-family="Times New Roman,serif" font-size="14.00">List[int]</text>
</a>
</g>
</g>
</g>
</svg>
