<?xml version="1.0" encoding="UTF-8" standalone="no"?>
<!DOCTYPE svg PUBLIC "-//W3C//DTD SVG 1.1//EN"
 "http://www.w3.org/Graphics/SVG/1.1/DTD/svg11.dtd">
<!-- Generated by graphviz version 9.0.0 (0)
 -->
<!-- Title: Entity Relationship Diagram Pages: 1 -->
<svg width="275pt" height="181pt"
 viewBox="0.00 0.00 274.50 180.50" xmlns="http://www.w3.org/2000/svg" xmlns:xlink="http://www.w3.org/1999/xlink">
<g id="graph0" class="graph" transform="scale(1 1) rotate(0) translate(4 176.5)">
<title>Entity Relationship Diagram</title>
<polygon fill="white" stroke="none" points="-4,4 -4,-176.5 270.5,-176.5 270.5,4 -4,4"/>
<text text-anchor="middle" x="133.25" y="-5.95" font-family="Times New Roman,serif" font-size="9.00" fill="#a8a8a8">Created by erdantic v0.6.0 &lt;https://github.com/drivendataorg/erdantic&gt;</text>
<!-- pypsse.models.LineFault -->
<g id="node1" class="node">
<title>pypsse.models.LineFault</title>
<g id="a_node1"><a xlink:title="pypsse.models.LineFault&#10;&#10;Line fault model defination&#10;">
<polygon fill="none" stroke="black" points="60.25,-150.5 60.25,-172.5 206.25,-172.5 206.25,-150.5 60.25,-150.5"/>
<text text-anchor="start" x="104.75" y="-157.2" font-family="Times New Roman,serif" font-weight="bold" font-size="14.00">LineFault</text>
<polygon fill="none" stroke="black" points="60.25,-128.5 60.25,-150.5 156.25,-150.5 156.25,-128.5 60.25,-128.5"/>
<text text-anchor="start" x="95.88" y="-134.2" font-family="Times New Roman,serif" font-size="14.00">time</text>
<polygon fill="none" stroke="black" points="156.25,-128.5 156.25,-150.5 206.25,-150.5 206.25,-128.5 156.25,-128.5"/>
<text text-anchor="start" x="168.88" y="-134.2" font-family="Times New Roman,serif" font-size="14.00">float</text>
<polygon fill="none" stroke="black" points="60.25,-106.5 60.25,-128.5 156.25,-128.5 156.25,-106.5 60.25,-106.5"/>
<text text-anchor="start" x="87.62" y="-112.2" font-family="Times New Roman,serif" font-size="14.00">bus_ids</text>
<polygon fill="none" stroke="black" points="156.25,-106.5 156.25,-128.5 206.25,-128.5 206.25,-106.5 156.25,-106.5"/>
<text text-anchor="start" x="159.12" y="-112.2" font-family="Times New Roman,serif" font-size="14.00">List[int]</text>
<polygon fill="none" stroke="black" points="60.25,-84.5 60.25,-106.5 156.25,-106.5 156.25,-84.5 60.25,-84.5"/>
<text text-anchor="start" x="85.75" y="-90.2" font-family="Times New Roman,serif" font-size="14.00">duration</text>
<polygon fill="none" stroke="black" points="156.25,-84.5 156.25,-106.5 206.25,-106.5 206.25,-84.5 156.25,-84.5"/>
<text text-anchor="start" x="168.88" y="-90.2" font-family="Times New Roman,serif" font-size="14.00">float</text>
<polygon fill="none" stroke="black" points="60.25,-62.5 60.25,-84.5 156.25,-84.5 156.25,-62.5 60.25,-62.5"/>
<text text-anchor="start" x="86.12" y="-68.2" font-family="Times New Roman,serif" font-size="14.00">bus_trip</text>
<polygon fill="none" stroke="black" points="156.25,-62.5 156.25,-84.5 206.25,-84.5 206.25,-62.5 156.25,-62.5"/>
<text text-anchor="start" x="169.25" y="-68.2" font-family="Times New Roman,serif" font-size="14.00">bool</text>
<polygon fill="none" stroke="black" points="60.25,-40.5 60.25,-62.5 156.25,-62.5 156.25,-40.5 60.25,-40.5"/>
<text text-anchor="start" x="80.88" y="-46.2" font-family="Times New Roman,serif" font-size="14.00">trip_delay</text>
<polygon fill="none" stroke="black" points="156.25,-40.5 156.25,-62.5 206.25,-62.5 206.25,-40.5 156.25,-40.5"/>
<text text-anchor="start" x="168.88" y="-46.2" font-family="Times New Roman,serif" font-size="14.00">float</text>
<polygon fill="none" stroke="black" points="60.25,-18.5 60.25,-40.5 156.25,-40.5 156.25,-18.5 60.25,-18.5"/>
<text text-anchor="start" x="62.88" y="-24.2" font-family="Times New Roman,serif" font-size="14.00">fault_impedance</text>
<polygon fill="none" stroke="black" points="156.25,-18.5 156.25,-40.5 206.25,-40.5 206.25,-18.5 156.25,-18.5"/>
<text text-anchor="start" x="159.12" y="-24.2" font-family="Times New Roman,serif" font-size="14.00">List[int]</text>
</a>
</g>
</g>
</g>
</svg>
