<?xml version="1.0" encoding="UTF-8" standalone="no"?>
<!DOCTYPE svg PUBLIC "-//W3C//DTD SVG 1.1//EN"
 "http://www.w3.org/Graphics/SVG/1.1/DTD/svg11.dtd">
<!-- Generated by graphviz version 9.0.0 (0)
 -->
<!-- Title: Entity Relationship Diagram Pages: 1 -->
<svg width="275pt" height="93pt"
 viewBox="0.00 0.00 274.50 92.50" xmlns="http://www.w3.org/2000/svg" xmlns:xlink="http://www.w3.org/1999/xlink">
<g id="graph0" class="graph" transform="scale(1 1) rotate(0) translate(4 88.5)">
<title>Entity Relationship Diagram</title>
<polygon fill="white" stroke="none" points="-4,4 -4,-88.5 270.5,-88.5 270.5,4 -4,4"/>
<text text-anchor="middle" x="133.25" y="-5.95" font-family="Times New Roman,serif" font-size="9.00" fill="#a8a8a8">Created by erdantic v0.6.0 &lt;https://github.com/drivendataorg/erdantic&gt;</text>
<!-- pypsse.models.LoadBreakdown -->
<g id="node1" class="node">
<title>pypsse.models.LoadBreakdown</title>
<g id="a_node1"><a xlink:title="pypsse.models.LoadBreakdown&#10;&#10;Load ZIP model defination&#10;">
<polygon fill="none" stroke="black" points="26.75,-62.5 26.75,-84.5 239.75,-84.5 239.75,-62.5 26.75,-62.5"/>
<text text-anchor="start" x="84.88" y="-69.2" font-family="Times New Roman,serif" font-weight="bold" font-size="14.00">LoadBreakdown</text>
<polygon fill="none" stroke="black" points="26.75,-40.5 26.75,-62.5 209.75,-62.5 209.75,-40.5 26.75,-40.5"/>
<text text-anchor="start" x="40.62" y="-46.2" font-family="Times New Roman,serif" font-size="14.00">constant_current_percentage</text>
<polygon fill="none" stroke="black" points="209.75,-40.5 209.75,-62.5 239.75,-62.5 239.75,-40.5 209.75,-40.5"/>
<text text-anchor="start" x="212.38" y="-46.2" font-family="Times New Roman,serif" font-size="14.00">float</text>
<polygon fill="none" stroke="black" points="26.75,-18.5 26.75,-40.5 209.75,-40.5 209.75,-18.5 26.75,-18.5"/>
<text text-anchor="start" x="29.75" y="-24.2" font-family="Times New Roman,serif" font-size="14.00">constant_admittance_percentage</text>
<polygon fill="none" stroke="black" points="209.75,-18.5 209.75,-40.5 239.75,-40.5 239.75,-18.5 209.75,-18.5"/>
<text text-anchor="start" x="212.38" y="-24.2" font-family="Times New Roman,serif" font-size="14.00">float</text>
</a>
</g>
</g>
</g>
</svg>
