<?xml version="1.0" encoding="UTF-8" standalone="no"?>
<!DOCTYPE svg PUBLIC "-//W3C//DTD SVG 1.1//EN"
 "http://www.w3.org/Graphics/SVG/1.1/DTD/svg11.dtd">
<!-- Generated by graphviz version 9.0.0 (0)
 -->
<!-- Title: Entity Relationship Diagram Pages: 1 -->
<svg width="275pt" height="159pt"
 viewBox="0.00 0.00 274.50 158.50" xmlns="http://www.w3.org/2000/svg" xmlns:xlink="http://www.w3.org/1999/xlink">
<g id="graph0" class="graph" transform="scale(1 1) rotate(0) translate(4 154.5)">
<title>Entity Relationship Diagram</title>
<polygon fill="white" stroke="none" points="-4,4 -4,-154.5 270.5,-154.5 270.5,4 -4,4"/>
<text text-anchor="middle" x="133.25" y="-5.95" font-family="Times New Roman,serif" font-size="9.00" fill="#a8a8a8">Created by erdantic v0.6.0 &lt;https://github.com/drivendataorg/erdantic&gt;</text>
<!-- pypsse.models.LoadChannel -->
<g id="node1" class="node">
<title>pypsse.models.LoadChannel</title>
<g id="a_node1"><a xlink:title="pypsse.models.LoadChannel&#10;&#10;Load channel model defination&#10;">
<polygon fill="none" stroke="black" points="23.75,-128.5 23.75,-150.5 242.75,-150.5 242.75,-128.5 23.75,-128.5"/>
<text text-anchor="start" x="93.88" y="-135.2" font-family="Times New Roman,serif" font-weight="bold" font-size="14.00">LoadChannel</text>
<polygon fill="none" stroke="black" points="23.75,-106.5 23.75,-128.5 116.75,-128.5 116.75,-106.5 23.75,-106.5"/>
<text text-anchor="start" x="42.12" y="-112.2" font-family="Times New Roman,serif" font-size="14.00">asset_type</text>
<polygon fill="none" stroke="black" points="116.75,-106.5 116.75,-128.5 242.75,-128.5 242.75,-106.5 116.75,-106.5"/>
<text text-anchor="start" x="140.75" y="-112.2" font-family="Times New Roman,serif" font-size="14.00">Literal[&#39;loads&#39;]</text>
<polygon fill="none" stroke="black" points="23.75,-84.5 23.75,-106.5 116.75,-106.5 116.75,-84.5 23.75,-84.5"/>
<text text-anchor="start" x="61.25" y="-90.2" font-family="Times New Roman,serif" font-size="14.00">use</text>
<polygon fill="none" stroke="black" points="116.75,-84.5 116.75,-106.5 242.75,-106.5 242.75,-84.5 116.75,-84.5"/>
<text text-anchor="start" x="119.38" y="-90.2" font-family="Times New Roman,serif" font-size="14.00">UseModes(str, Enum)</text>
<polygon fill="none" stroke="black" points="23.75,-62.5 23.75,-84.5 116.75,-84.5 116.75,-62.5 23.75,-62.5"/>
<text text-anchor="start" x="55.25" y="-68.2" font-family="Times New Roman,serif" font-size="14.00">regex</text>
<polygon fill="none" stroke="black" points="116.75,-62.5 116.75,-84.5 242.75,-84.5 242.75,-62.5 116.75,-62.5"/>
<text text-anchor="start" x="173" y="-68.2" font-family="Times New Roman,serif" font-size="14.00">str</text>
<polygon fill="none" stroke="black" points="23.75,-40.5 23.75,-62.5 116.75,-62.5 116.75,-40.5 23.75,-40.5"/>
<text text-anchor="start" x="45.5" y="-46.2" font-family="Times New Roman,serif" font-size="14.00">asset_list</text>
<polygon fill="none" stroke="black" points="116.75,-40.5 116.75,-62.5 242.75,-62.5 242.75,-40.5 116.75,-40.5"/>
<text text-anchor="start" x="143" y="-46.2" font-family="Times New Roman,serif" font-size="14.00">List[List[str]]</text>
<polygon fill="none" stroke="black" points="23.75,-18.5 23.75,-40.5 116.75,-40.5 116.75,-18.5 23.75,-18.5"/>
<text text-anchor="start" x="26.75" y="-24.2" font-family="Times New Roman,serif" font-size="14.00">asset_properties</text>
<polygon fill="none" stroke="black" points="116.75,-18.5 116.75,-40.5 242.75,-40.5 242.75,-18.5 116.75,-18.5"/>
<text text-anchor="start" x="158" y="-24.2" font-family="Times New Roman,serif" font-size="14.00">List[str]</text>
</a>
</g>
</g>
</g>
</svg>
