<?xml version="1.0" encoding="UTF-8" standalone="no"?>
<!DOCTYPE svg PUBLIC "-//W3C//DTD SVG 1.1//EN"
 "http://www.w3.org/Graphics/SVG/1.1/DTD/svg11.dtd">
<!-- Generated by graphviz version 9.0.0 (0)
 -->
<!-- Title: Entity Relationship Diagram Pages: 1 -->
<svg width="503pt" height="148pt"
 viewBox="0.00 0.00 503.00 147.50" xmlns="http://www.w3.org/2000/svg" xmlns:xlink="http://www.w3.org/1999/xlink">
<g id="graph0" class="graph" transform="scale(1 1) rotate(0) translate(4 143.5)">
<title>Entity Relationship Diagram</title>
<polygon fill="white" stroke="none" points="-4,4 -4,-143.5 499,-143.5 499,4 -4,4"/>
<text text-anchor="middle" x="247.5" y="-5.95" font-family="Times New Roman,serif" font-size="9.00" fill="#a8a8a8">Created by erdantic v0.6.0 &lt;https://github.com/drivendataorg/erdantic&gt;</text>
<!-- pypsse.models.LoadBreakdown -->
<g id="node1" class="node">
<title>pypsse.models.LoadBreakdown</title>
<g id="a_node1"><a xlink:title="pypsse.models.LoadBreakdown&#10;&#10;Load ZIP model defination&#10;">
<polygon fill="none" stroke="black" points="282,-62.5 282,-84.5 495,-84.5 495,-62.5 282,-62.5"/>
<text text-anchor="start" x="340.12" y="-69.2" font-family="Times New Roman,serif" font-weight="bold" font-size="14.00">LoadBreakdown</text>
<polygon fill="none" stroke="black" points="282,-40.5 282,-62.5 465,-62.5 465,-40.5 282,-40.5"/>
<text text-anchor="start" x="295.88" y="-46.2" font-family="Times New Roman,serif" font-size="14.00">constant_current_percentage</text>
<polygon fill="none" stroke="black" points="465,-40.5 465,-62.5 495,-62.5 495,-40.5 465,-40.5"/>
<text text-anchor="start" x="467.62" y="-46.2" font-family="Times New Roman,serif" font-size="14.00">float</text>
<polygon fill="none" stroke="black" points="282,-18.5 282,-40.5 465,-40.5 465,-18.5 282,-18.5"/>
<text text-anchor="start" x="285" y="-24.2" font-family="Times New Roman,serif" font-size="14.00">constant_admittance_percentage</text>
<polygon fill="none" stroke="black" points="465,-18.5 465,-40.5 495,-40.5 495,-18.5 465,-18.5"/>
<text text-anchor="start" x="467.62" y="-24.2" font-family="Times New Roman,serif" font-size="14.00">float</text>
</a>
</g>
</g>
<!-- pypsse.models.LoadSettings -->
<g id="node2" class="node">
<title>pypsse.models.LoadSettings</title>
<g id="a_node2"><a xlink:title="pypsse.models.LoadSettings&#10;&#10;Load model defination&#10;">
<polygon fill="none" stroke="black" points="0,-117.5 0,-139.5 174,-139.5 174,-117.5 0,-117.5"/>
<text text-anchor="start" x="49.12" y="-124.2" font-family="Times New Roman,serif" font-weight="bold" font-size="14.00">LoadSettings</text>
<polygon fill="none" stroke="black" points="0,-95.5 0,-117.5 78,-117.5 78,-95.5 0,-95.5"/>
<text text-anchor="start" x="18.75" y="-101.2" font-family="Times New Roman,serif" font-size="14.00">convert</text>
<polygon fill="none" stroke="black" points="78,-95.5 78,-117.5 174,-117.5 174,-95.5 78,-95.5"/>
<text text-anchor="start" x="114" y="-101.2" font-family="Times New Roman,serif" font-size="14.00">bool</text>
<polygon fill="none" stroke="black" points="0,-73.5 0,-95.5 78,-95.5 78,-73.5 0,-73.5"/>
<text text-anchor="start" x="7.88" y="-79.2" font-family="Times New Roman,serif" font-size="14.00">active_load</text>
<polygon fill="none" stroke="black" points="78,-73.5 78,-95.5 174,-95.5 174,-73.5 78,-73.5"/>
<text text-anchor="start" x="81" y="-79.2" font-family="Times New Roman,serif" font-size="14.00">LoadBreakdown</text>
<polygon fill="none" stroke="black" points="0,-51.5 0,-73.5 78,-73.5 78,-51.5 0,-51.5"/>
<text text-anchor="start" x="2.62" y="-57.2" font-family="Times New Roman,serif" font-size="14.00">reactive_load</text>
<polygon fill="none" stroke="black" points="78,-51.5 78,-73.5 174,-73.5 174,-51.5 78,-51.5"/>
<text text-anchor="start" x="81" y="-57.2" font-family="Times New Roman,serif" font-size="14.00">LoadBreakdown</text>
</a>
</g>
</g>
<!-- pypsse.models.LoadSettings&#45;&gt;pypsse.models.LoadBreakdown -->
<g id="edge1" class="edge">
<title>pypsse.models.LoadSettings:e&#45;&gt;pypsse.models.LoadBreakdown:w</title>
<path fill="none" stroke="black" d="M174,-84.5C216.97,-84.5 230.8,-75.77 267.39,-73.87"/>
<polyline fill="none" stroke="black" points="282,-73.5 277,-73.63"/>
<polygon fill="black" stroke="black" points="275.88,-68.65 276.13,-78.65 274.13,-78.7 273.88,-68.7 275.88,-68.65"/>
<polyline fill="none" stroke="black" points="277,-73.63 272,-73.75"/>
<polygon fill="black" stroke="black" points="270.88,-68.78 271.13,-78.77 269.13,-78.82 268.88,-68.83 270.88,-68.78"/>
<polyline fill="none" stroke="black" points="272,-73.75 267,-73.88"/>
</g>
<!-- pypsse.models.LoadSettings&#45;&gt;pypsse.models.LoadBreakdown -->
<g id="edge2" class="edge">
<title>pypsse.models.LoadSettings:e&#45;&gt;pypsse.models.LoadBreakdown:w</title>
<path fill="none" stroke="black" d="M174,-62.5C216.97,-62.5 230.8,-71.23 267.39,-73.13"/>
<polyline fill="none" stroke="black" points="282,-73.5 277,-73.37"/>
<polygon fill="black" stroke="black" points="276.13,-68.35 275.88,-78.35 273.88,-78.3 274.13,-68.3 276.13,-68.35"/>
<polyline fill="none" stroke="black" points="277,-73.37 272,-73.25"/>
<polygon fill="black" stroke="black" points="271.13,-68.23 270.88,-78.22 268.88,-78.17 269.13,-68.18 271.13,-68.23"/>
<polyline fill="none" stroke="black" points="272,-73.25 267,-73.12"/>
</g>
</g>
</svg>
