<?xml version="1.0" encoding="UTF-8" standalone="no"?>
<!DOCTYPE svg PUBLIC "-//W3C//DTD SVG 1.1//EN"
 "http://www.w3.org/Graphics/SVG/1.1/DTD/svg11.dtd">
<!-- Generated by graphviz version 9.0.0 (0)
 -->
<!-- Title: Entity Relationship Diagram Pages: 1 -->
<svg width="288pt" height="181pt"
 viewBox="0.00 0.00 288.00 180.50" xmlns="http://www.w3.org/2000/svg" xmlns:xlink="http://www.w3.org/1999/xlink">
<g id="graph0" class="graph" transform="scale(1 1) rotate(0) translate(4 176.5)">
<title>Entity Relationship Diagram</title>
<polygon fill="white" stroke="none" points="-4,4 -4,-176.5 284,-176.5 284,4 -4,4"/>
<text text-anchor="middle" x="140" y="-5.95" font-family="Times New Roman,serif" font-size="9.00" fill="#a8a8a8">Created by erdantic v0.6.0 &lt;https://github.com/drivendataorg/erdantic&gt;</text>
<!-- pypsse.models.LogSettings -->
<g id="node1" class="node">
<title>pypsse.models.LogSettings</title>
<g id="a_node1"><a xlink:title="pypsse.models.LogSettings&#10;&#10;Logger setting model defination&#10;">
<polygon fill="none" stroke="black" points="0,-150.5 0,-172.5 280,-172.5 280,-150.5 0,-150.5"/>
<text text-anchor="start" x="105.88" y="-157.2" font-family="Times New Roman,serif" font-weight="bold" font-size="14.00">LogSettings</text>
<polygon fill="none" stroke="black" points="0,-128.5 0,-150.5 136,-150.5 136,-128.5 0,-128.5"/>
<text text-anchor="start" x="9.88" y="-134.2" font-family="Times New Roman,serif" font-size="14.00">disable_psse_logging</text>
<polygon fill="none" stroke="black" points="136,-128.5 136,-150.5 280,-150.5 280,-128.5 136,-128.5"/>
<text text-anchor="start" x="196" y="-134.2" font-family="Times New Roman,serif" font-size="14.00">bool</text>
<polygon fill="none" stroke="black" points="0,-106.5 0,-128.5 136,-128.5 136,-106.5 0,-106.5"/>
<text text-anchor="start" x="30.88" y="-112.2" font-family="Times New Roman,serif" font-size="14.00">logging_level</text>
<polygon fill="none" stroke="black" points="136,-106.5 136,-128.5 280,-128.5 280,-106.5 136,-106.5"/>
<text text-anchor="start" x="138.62" y="-112.2" font-family="Times New Roman,serif" font-size="14.00">LoggingLevels(IntEnum)</text>
<polygon fill="none" stroke="black" points="0,-84.5 0,-106.5 136,-106.5 136,-84.5 0,-84.5"/>
<text text-anchor="start" x="13.25" y="-90.2" font-family="Times New Roman,serif" font-size="14.00">log_to_external_file</text>
<polygon fill="none" stroke="black" points="136,-84.5 136,-106.5 280,-106.5 280,-84.5 136,-84.5"/>
<text text-anchor="start" x="196" y="-90.2" font-family="Times New Roman,serif" font-size="14.00">bool</text>
<polygon fill="none" stroke="black" points="0,-62.5 0,-84.5 136,-84.5 136,-62.5 0,-62.5"/>
<text text-anchor="start" x="17.75" y="-68.2" font-family="Times New Roman,serif" font-size="14.00">display_on_screen</text>
<polygon fill="none" stroke="black" points="136,-62.5 136,-84.5 280,-84.5 280,-62.5 136,-62.5"/>
<text text-anchor="start" x="196" y="-68.2" font-family="Times New Roman,serif" font-size="14.00">bool</text>
<polygon fill="none" stroke="black" points="0,-40.5 0,-62.5 136,-62.5 136,-40.5 0,-40.5"/>
<text text-anchor="start" x="18.5" y="-46.2" font-family="Times New Roman,serif" font-size="14.00">clear_old_log_file</text>
<polygon fill="none" stroke="black" points="136,-40.5 136,-62.5 280,-62.5 280,-40.5 136,-40.5"/>
<text text-anchor="start" x="196" y="-46.2" font-family="Times New Roman,serif" font-size="14.00">bool</text>
<polygon fill="none" stroke="black" points="0,-18.5 0,-40.5 136,-40.5 136,-18.5 0,-18.5"/>
<text text-anchor="start" x="2.75" y="-24.2" font-family="Times New Roman,serif" font-size="14.00">pre_configured_logging</text>
<polygon fill="none" stroke="black" points="136,-18.5 136,-40.5 280,-40.5 280,-18.5 136,-18.5"/>
<text text-anchor="start" x="196" y="-24.2" font-family="Times New Roman,serif" font-size="14.00">bool</text>
</a>
</g>
</g>
</g>
</svg>
