<?xml version="1.0" encoding="UTF-8" standalone="no"?>
<!DOCTYPE svg PUBLIC "-//W3C//DTD SVG 1.1//EN"
 "http://www.w3.org/Graphics/SVG/1.1/DTD/svg11.dtd">
<!-- Generated by graphviz version 9.0.0 (0)
 -->
<!-- Title: Entity Relationship Diagram Pages: 1 -->
<svg width="275pt" height="115pt"
 viewBox="0.00 0.00 274.50 114.50" xmlns="http://www.w3.org/2000/svg" xmlns:xlink="http://www.w3.org/1999/xlink">
<g id="graph0" class="graph" transform="scale(1 1) rotate(0) translate(4 110.5)">
<title>Entity Relationship Diagram</title>
<polygon fill="white" stroke="none" points="-4,4 -4,-110.5 270.5,-110.5 270.5,4 -4,4"/>
<text text-anchor="middle" x="133.25" y="-5.95" font-family="Times New Roman,serif" font-size="9.00" fill="#a8a8a8">Created by erdantic v0.6.0 &lt;https://github.com/drivendataorg/erdantic&gt;</text>
<!-- pypsse.models.MachineTrip -->
<g id="node1" class="node">
<title>pypsse.models.MachineTrip</title>
<g id="a_node1"><a xlink:title="pypsse.models.MachineTrip&#10;&#10;Machine trip model defination&#10;">
<polygon fill="none" stroke="black" points="83.75,-84.5 83.75,-106.5 182.75,-106.5 182.75,-84.5 83.75,-84.5"/>
<text text-anchor="start" x="95" y="-91.2" font-family="Times New Roman,serif" font-weight="bold" font-size="14.00">MachineTrip</text>
<polygon fill="none" stroke="black" points="83.75,-62.5 83.75,-84.5 152.75,-84.5 152.75,-62.5 83.75,-62.5"/>
<text text-anchor="start" x="105.88" y="-68.2" font-family="Times New Roman,serif" font-size="14.00">time</text>
<polygon fill="none" stroke="black" points="152.75,-62.5 152.75,-84.5 182.75,-84.5 182.75,-62.5 152.75,-62.5"/>
<text text-anchor="start" x="155.38" y="-68.2" font-family="Times New Roman,serif" font-size="14.00">float</text>
<polygon fill="none" stroke="black" points="83.75,-40.5 83.75,-62.5 152.75,-62.5 152.75,-40.5 83.75,-40.5"/>
<text text-anchor="start" x="100.25" y="-46.2" font-family="Times New Roman,serif" font-size="14.00">bus_id</text>
<polygon fill="none" stroke="black" points="152.75,-40.5 152.75,-62.5 182.75,-62.5 182.75,-40.5 152.75,-40.5"/>
<text text-anchor="start" x="160.62" y="-46.2" font-family="Times New Roman,serif" font-size="14.00">int</text>
<polygon fill="none" stroke="black" points="83.75,-18.5 83.75,-40.5 152.75,-40.5 152.75,-18.5 83.75,-18.5"/>
<text text-anchor="start" x="86.38" y="-24.2" font-family="Times New Roman,serif" font-size="14.00">machine_id</text>
<polygon fill="none" stroke="black" points="152.75,-18.5 152.75,-40.5 182.75,-40.5 182.75,-18.5 152.75,-18.5"/>
<text text-anchor="start" x="161" y="-24.2" font-family="Times New Roman,serif" font-size="14.00">str</text>
</a>
</g>
</g>
</g>
</svg>
