<?xml version="1.0" encoding="UTF-8" standalone="no"?>
<!DOCTYPE svg PUBLIC "-//W3C//DTD SVG 1.1//EN"
 "http://www.w3.org/Graphics/SVG/1.1/DTD/svg11.dtd">
<!-- Generated by graphviz version 9.0.0 (0)
 -->
<!-- Title: Entity Relationship Diagram Pages: 1 -->
<svg width="277pt" height="115pt"
 viewBox="0.00 0.00 277.00 114.50" xmlns="http://www.w3.org/2000/svg" xmlns:xlink="http://www.w3.org/1999/xlink">
<g id="graph0" class="graph" transform="scale(1 1) rotate(0) translate(4 110.5)">
<title>Entity Relationship Diagram</title>
<polygon fill="white" stroke="none" points="-4,4 -4,-110.5 273,-110.5 273,4 -4,4"/>
<text text-anchor="middle" x="134.5" y="-5.95" font-family="Times New Roman,serif" font-size="9.00" fill="#a8a8a8">Created by erdantic v0.6.0 &lt;https://github.com/drivendataorg/erdantic&gt;</text>
<!-- pypsse.models.PublicationDefination -->
<g id="node1" class="node">
<title>pypsse.models.PublicationDefination</title>
<g id="a_node1"><a xlink:title="pypsse.models.PublicationDefination&#10;&#10;Publication setting model defination&#10; &#160;&#160;&#160;&#10;">
<polygon fill="none" stroke="black" points="0,-84.5 0,-106.5 269,-106.5 269,-84.5 0,-84.5"/>
<text text-anchor="start" x="71.12" y="-91.2" font-family="Times New Roman,serif" font-weight="bold" font-size="14.00">PublicationDefination</text>
<polygon fill="none" stroke="black" points="0,-62.5 0,-84.5 101,-84.5 101,-62.5 0,-62.5"/>
<text text-anchor="start" x="6.62" y="-68.2" font-family="Times New Roman,serif" font-size="14.00">bus_subsystems</text>
<polygon fill="none" stroke="black" points="101,-62.5 101,-84.5 269,-84.5 269,-62.5 101,-62.5"/>
<text text-anchor="start" x="162.88" y="-68.2" font-family="Times New Roman,serif" font-size="14.00">List[int]</text>
<polygon fill="none" stroke="black" points="0,-40.5 0,-62.5 101,-62.5 101,-40.5 0,-40.5"/>
<text text-anchor="start" x="18.25" y="-46.2" font-family="Times New Roman,serif" font-size="14.00">model_type</text>
<polygon fill="none" stroke="black" points="101,-40.5 101,-62.5 269,-62.5 269,-40.5 101,-40.5"/>
<text text-anchor="start" x="129.88" y="-46.2" font-family="Times New Roman,serif" font-size="14.00">ModelTypes(Enum)</text>
<polygon fill="none" stroke="black" points="0,-18.5 0,-40.5 101,-40.5 101,-18.5 0,-18.5"/>
<text text-anchor="start" x="2.88" y="-24.2" font-family="Times New Roman,serif" font-size="14.00">model_properties</text>
<polygon fill="none" stroke="black" points="101,-18.5 101,-40.5 269,-40.5 269,-18.5 101,-18.5"/>
<text text-anchor="start" x="103.62" y="-24.2" font-family="Times New Roman,serif" font-size="14.00">List[ModelProperties(Enum)]</text>
</a>
</g>
</g>
</g>
</svg>
