<?xml version="1.0" encoding="UTF-8" standalone="no"?>
<!DOCTYPE svg PUBLIC "-//W3C//DTD SVG 1.1//EN"
 "http://www.w3.org/Graphics/SVG/1.1/DTD/svg11.dtd">
<!-- Generated by graphviz version 9.0.0 (0)
 -->
<!-- Title: Entity Relationship Diagram Pages: 1 -->
<svg width="306pt" height="423pt"
 viewBox="0.00 0.00 306.00 422.50" xmlns="http://www.w3.org/2000/svg" xmlns:xlink="http://www.w3.org/1999/xlink">
<g id="graph0" class="graph" transform="scale(1 1) rotate(0) translate(4 418.5)">
<title>Entity Relationship Diagram</title>
<polygon fill="white" stroke="none" points="-4,4 -4,-418.5 302,-418.5 302,4 -4,4"/>
<text text-anchor="middle" x="149" y="-5.95" font-family="Times New Roman,serif" font-size="9.00" fill="#a8a8a8">Created by erdantic v0.6.0 &lt;https://github.com/drivendataorg/erdantic&gt;</text>
<!-- pypsse.models.SimSettings -->
<g id="node1" class="node">
<title>pypsse.models.SimSettings</title>
<g id="a_node1"><a xlink:title="pypsse.models.SimSettings&#10;&#10;Simulation setting &#160;model defination&#10;">
<polygon fill="none" stroke="black" points="0,-392.5 0,-414.5 298,-414.5 298,-392.5 0,-392.5"/>
<text text-anchor="start" x="114.5" y="-399.2" font-family="Times New Roman,serif" font-weight="bold" font-size="14.00">SimSettings</text>
<polygon fill="none" stroke="black" points="0,-370.5 0,-392.5 153,-392.5 153,-370.5 0,-370.5"/>
<text text-anchor="start" x="31.88" y="-376.2" font-family="Times New Roman,serif" font-size="14.00">simulation_time</text>
<polygon fill="none" stroke="black" points="153,-370.5 153,-392.5 298,-392.5 298,-370.5 153,-370.5"/>
<text text-anchor="start" x="200" y="-376.2" font-family="Times New Roman,serif" font-size="14.00">timedelta</text>
<polygon fill="none" stroke="black" points="0,-348.5 0,-370.5 153,-370.5 153,-348.5 0,-348.5"/>
<text text-anchor="start" x="3" y="-354.2" font-family="Times New Roman,serif" font-size="14.00">simulation_step_resolution</text>
<polygon fill="none" stroke="black" points="153,-348.5 153,-370.5 298,-370.5 298,-348.5 153,-348.5"/>
<text text-anchor="start" x="200" y="-354.2" font-family="Times New Roman,serif" font-size="14.00">timedelta</text>
<polygon fill="none" stroke="black" points="0,-326.5 0,-348.5 153,-348.5 153,-326.5 0,-326.5"/>
<text text-anchor="start" x="18.38" y="-332.2" font-family="Times New Roman,serif" font-size="14.00">psse_solver_timestep</text>
<polygon fill="none" stroke="black" points="153,-326.5 153,-348.5 298,-348.5 298,-326.5 153,-326.5"/>
<text text-anchor="start" x="200" y="-332.2" font-family="Times New Roman,serif" font-size="14.00">timedelta</text>
<polygon fill="none" stroke="black" points="0,-304.5 0,-326.5 153,-326.5 153,-304.5 0,-304.5"/>
<text text-anchor="start" x="49.12" y="-310.2" font-family="Times New Roman,serif" font-size="14.00">start_time</text>
<polygon fill="none" stroke="black" points="153,-304.5 153,-326.5 298,-326.5 298,-304.5 153,-304.5"/>
<text text-anchor="start" x="201.88" y="-310.2" font-family="Times New Roman,serif" font-size="14.00">datetime</text>
<polygon fill="none" stroke="black" points="0,-282.5 0,-304.5 153,-304.5 153,-282.5 0,-282.5"/>
<text text-anchor="start" x="19.12" y="-288.2" font-family="Times New Roman,serif" font-size="14.00">use_profile_manager</text>
<polygon fill="none" stroke="black" points="153,-282.5 153,-304.5 298,-304.5 298,-282.5 153,-282.5"/>
<text text-anchor="start" x="213.5" y="-288.2" font-family="Times New Roman,serif" font-size="14.00">bool</text>
<polygon fill="none" stroke="black" points="0,-260.5 0,-282.5 153,-282.5 153,-260.5 0,-260.5"/>
<text text-anchor="start" x="49.88" y="-266.2" font-family="Times New Roman,serif" font-size="14.00">psse_path</text>
<polygon fill="none" stroke="black" points="153,-260.5 153,-282.5 298,-282.5 298,-260.5 153,-260.5"/>
<text text-anchor="start" x="213.5" y="-266.2" font-family="Times New Roman,serif" font-size="14.00">Path</text>
<polygon fill="none" stroke="black" points="0,-238.5 0,-260.5 153,-260.5 153,-238.5 0,-238.5"/>
<text text-anchor="start" x="42.75" y="-244.2" font-family="Times New Roman,serif" font-size="14.00">project_path</text>
<polygon fill="none" stroke="black" points="153,-238.5 153,-260.5 298,-260.5 298,-238.5 153,-238.5"/>
<text text-anchor="start" x="213.5" y="-244.2" font-family="Times New Roman,serif" font-size="14.00">Path</text>
<polygon fill="none" stroke="black" points="0,-216.5 0,-238.5 153,-238.5 153,-216.5 0,-216.5"/>
<text text-anchor="start" x="46.88" y="-222.2" font-family="Times New Roman,serif" font-size="14.00">case_study</text>
<polygon fill="none" stroke="black" points="153,-216.5 153,-238.5 298,-238.5 298,-216.5 153,-216.5"/>
<text text-anchor="start" x="185.38" y="-222.2" font-family="Times New Roman,serif" font-size="14.00">Optional[Path]</text>
<polygon fill="none" stroke="black" points="0,-194.5 0,-216.5 153,-216.5 153,-194.5 0,-194.5"/>
<text text-anchor="start" x="54" y="-200.2" font-family="Times New Roman,serif" font-size="14.00">raw_file</text>
<polygon fill="none" stroke="black" points="153,-194.5 153,-216.5 298,-216.5 298,-194.5 153,-194.5"/>
<text text-anchor="start" x="185.38" y="-200.2" font-family="Times New Roman,serif" font-size="14.00">Optional[Path]</text>
<polygon fill="none" stroke="black" points="0,-172.5 0,-194.5 153,-194.5 153,-172.5 0,-172.5"/>
<text text-anchor="start" x="54.75" y="-178.2" font-family="Times New Roman,serif" font-size="14.00">snp_file</text>
<polygon fill="none" stroke="black" points="153,-172.5 153,-194.5 298,-194.5 298,-172.5 153,-172.5"/>
<text text-anchor="start" x="185.38" y="-178.2" font-family="Times New Roman,serif" font-size="14.00">Optional[Path]</text>
<polygon fill="none" stroke="black" points="0,-150.5 0,-172.5 153,-172.5 153,-150.5 0,-150.5"/>
<text text-anchor="start" x="55.12" y="-156.2" font-family="Times New Roman,serif" font-size="14.00">dyr_file</text>
<polygon fill="none" stroke="black" points="153,-150.5 153,-172.5 298,-172.5 298,-150.5 153,-150.5"/>
<text text-anchor="start" x="185.38" y="-156.2" font-family="Times New Roman,serif" font-size="14.00">Optional[Path]</text>
<polygon fill="none" stroke="black" points="0,-128.5 0,-150.5 153,-150.5 153,-128.5 0,-128.5"/>
<text text-anchor="start" x="51.38" y="-134.2" font-family="Times New Roman,serif" font-size="14.00">rwm_file</text>
<polygon fill="none" stroke="black" points="153,-128.5 153,-150.5 298,-150.5 298,-128.5 153,-128.5"/>
<text text-anchor="start" x="185.38" y="-134.2" font-family="Times New Roman,serif" font-size="14.00">Optional[Path]</text>
<polygon fill="none" stroke="black" points="0,-106.5 0,-128.5 153,-128.5 153,-106.5 0,-106.5"/>
<text text-anchor="start" x="55.88" y="-112.2" font-family="Times New Roman,serif" font-size="14.00">gic_file</text>
<polygon fill="none" stroke="black" points="153,-106.5 153,-128.5 298,-128.5 298,-106.5 153,-106.5"/>
<text text-anchor="start" x="185.38" y="-112.2" font-family="Times New Roman,serif" font-size="14.00">Optional[Path]</text>
<polygon fill="none" stroke="black" points="0,-84.5 0,-106.5 153,-106.5 153,-84.5 0,-84.5"/>
<text text-anchor="start" x="28.5" y="-90.2" font-family="Times New Roman,serif" font-size="14.00">subscriptions_file</text>
<polygon fill="none" stroke="black" points="153,-84.5 153,-106.5 298,-106.5 298,-84.5 153,-84.5"/>
<text text-anchor="start" x="185.38" y="-90.2" font-family="Times New Roman,serif" font-size="14.00">Optional[Path]</text>
<polygon fill="none" stroke="black" points="0,-62.5 0,-84.5 153,-84.5 153,-62.5 0,-62.5"/>
<text text-anchor="start" x="42" y="-68.2" font-family="Times New Roman,serif" font-size="14.00">user_models</text>
<polygon fill="none" stroke="black" points="153,-62.5 153,-84.5 298,-84.5 298,-62.5 153,-62.5"/>
<text text-anchor="start" x="203.75" y="-68.2" font-family="Times New Roman,serif" font-size="14.00">List[str]</text>
<polygon fill="none" stroke="black" points="0,-40.5 0,-62.5 153,-62.5 153,-40.5 0,-40.5"/>
<text text-anchor="start" x="47.25" y="-46.2" font-family="Times New Roman,serif" font-size="14.00">setup_files</text>
<polygon fill="none" stroke="black" points="153,-40.5 153,-62.5 298,-62.5 298,-40.5 153,-40.5"/>
<text text-anchor="start" x="203.75" y="-46.2" font-family="Times New Roman,serif" font-size="14.00">List[str]</text>
<polygon fill="none" stroke="black" points="0,-18.5 0,-40.5 153,-40.5 153,-18.5 0,-18.5"/>
<text text-anchor="start" x="28.88" y="-24.2" font-family="Times New Roman,serif" font-size="14.00">simulation_mode</text>
<polygon fill="none" stroke="black" points="153,-18.5 153,-40.5 298,-40.5 298,-18.5 153,-18.5"/>
<text text-anchor="start" x="155.75" y="-24.2" font-family="Times New Roman,serif" font-size="14.00">SimulationModes(Enum)</text>
</a>
</g>
</g>
</g>
</svg>
